<?xml version="1.0" standalone="no"?>
<!DOCTYPE svg PUBLIC "-//W3C//DTD SVG 20010904//EN"
 "http://www.w3.org/TR/2001/REC-SVG-20010904/DTD/svg10.dtd">
<svg version="1.0" xmlns="http://www.w3.org/2000/svg"
 width="128.000000pt" height="128.000000pt" viewBox="0 0 128.000000 128.000000"
 preserveAspectRatio="xMidYMid meet">

<g transform="translate(0.000000,128.000000) scale(0.100000,-0.100000)"
fill="#000000" stroke="none">
<path d="M565 1105 c-66 -36 -95 -83 -95 -154 0 -50 15 -89 46 -122 l24 -25
-33 -32 -33 -32 -20 21 c-41 47 -132 63 -198 35 -18 -8 -46 -31 -62 -52 -25
-32 -29 -46 -29 -103 0 -53 5 -72 23 -99 57 -79 175 -95 251 -34 l38 31 32
-33 31 -32 -21 -20 c-73 -65 -61 -206 23 -266 26 -18 46 -23 98 -23 52 0 72 5
98 23 84 60 96 201 23 266 l-21 20 32 33 32 33 25 -24 c74 -70 203 -57 263 26
18 27 23 46 23 99 0 56 -4 71 -28 102 -62 81 -197 90 -261 18 l-20 -21 -33 32
-33 32 24 25 c70 74 57 203 -26 262 -41 30 -130 37 -173 14z m163 -81 c63 -73
44 -120 -106 -268 -69 -67 -83 -77 -96 -67 -13 11 -1 27 89 118 96 97 105 109
105 144 0 29 -6 42 -26 58 -55 44 -134 11 -134 -56 0 -19 9 -47 20 -63 11 -15
17 -30 13 -34 -14 -14 -32 -4 -52 28 -55 89 10 194 114 182 31 -4 48 -13 73
-42z m-63 -74 c0 -18 -6 -26 -23 -28 -24 -4 -38 18 -28 44 3 9 15 14 28 12 17
-2 23 -10 23 -28z m286 -390 c29 0 42 6 58 26 44 56 11 134 -58 134 -24 0 -45
-7 -59 -21 -23 -21 -42 -18 -42 6 0 21 64 55 104 55 27 0 45 -8 74 -34 34 -31
37 -39 37 -86 0 -48 -3 -55 -39 -86 -75 -65 -121 -47 -270 104 -67 69 -77 83
-67 96 11 13 27 1 118 -89 97 -96 109 -105 144 -105z m-545 171 c21 -16 75
-65 118 -109 67 -69 77 -83 67 -96 -11 -13 -27 -1 -118 89 -97 96 -109 105
-144 105 -29 0 -42 -6 -58 -26 -63 -81 34 -174 119 -114 27 19 40 18 40 -6 0
-19 -67 -54 -104 -54 -23 0 -44 10 -70 33 -119 104 23 273 150 178z m269 -61
l29 -30 -32 -33 -32 -32 -32 32 -32 33 29 30 c16 16 32 30 35 30 3 0 19 -14
35 -30z m-317 -24 c5 -25 -12 -39 -37 -31 -20 6 -28 34 -14 49 13 13 48 1 51
-18z m617 -6 c0 -18 -6 -26 -23 -28 -24 -4 -38 18 -28 44 3 9 15 14 28 12 17
-2 23 -10 23 -28z m-218 -51 c9 -9 -15 -38 -93 -117 -95 -96 -104 -108 -104
-143 0 -29 6 -42 26 -58 56 -44 134 -11 134 58 0 24 -7 45 -21 59 -21 23 -18
42 6 42 21 0 55 -63 55 -102 0 -25 -9 -46 -34 -74 -31 -36 -38 -39 -86 -39
-48 0 -55 3 -86 39 -39 45 -45 95 -18 136 19 28 196 210 204 210 3 0 11 -5 17
-11z m-92 -259 c0 -33 -40 -41 -50 -11 -9 28 2 43 28 39 16 -2 22 -10 22 -28z"/>
</g>
</svg>
