<?xml version="1.0" encoding="UTF-8" standalone="no"?>
<!DOCTYPE svg PUBLIC "-//W3C//DTD SVG 1.1//EN"
 "http://www.w3.org/Graphics/SVG/1.1/DTD/svg11.dtd">
<!-- Generated by graphviz version 2.43.0 (0)
 -->
<!-- Title: dependency&#45;cruiser output Pages: 1 -->
<svg width="375pt" height="420pt"
 viewBox="0.00 0.00 375.00 420.00" xmlns="http://www.w3.org/2000/svg" xmlns:xlink="http://www.w3.org/1999/xlink">
<g id="graph0" class="graph" transform="scale(1 1) rotate(0) translate(4 416)">
<title>dependency&#45;cruiser output</title>
<polygon fill="white" stroke="transparent" points="-4,4 -4,-416 371,-416 371,4 -4,4"/>
<g id="clust1" class="cluster">
<title>cluster_apps</title>
<path fill="#ffffff" stroke="black" stroke-width="2" d="M65.5,-60C65.5,-60 148.5,-60 148.5,-60 154.5,-60 160.5,-66 160.5,-72 160.5,-72 160.5,-130 160.5,-130 160.5,-136 154.5,-142 148.5,-142 148.5,-142 65.5,-142 65.5,-142 59.5,-142 53.5,-136 53.5,-130 53.5,-130 53.5,-72 53.5,-72 53.5,-66 59.5,-60 65.5,-60"/>
<text text-anchor="middle" x="107" y="-130.8" font-family="Helvetica,sans-Serif" font-weight="bold" font-size="9.00">apps</text>
</g>
<g id="clust2" class="cluster">
<title>cluster_diagrams</title>
<path fill="#ffffff" stroke="black" stroke-width="2" d="M20,-270C20,-270 347,-270 347,-270 353,-270 359,-276 359,-282 359,-282 359,-374 359,-374 359,-380 353,-386 347,-386 347,-386 20,-386 20,-386 14,-386 8,-380 8,-374 8,-374 8,-282 8,-282 8,-276 14,-270 20,-270"/>
<text text-anchor="middle" x="183.5" y="-374.8" font-family="Helvetica,sans-Serif" font-weight="bold" font-size="9.00">diagrams</text>
</g>
<g id="clust3" class="cluster">
<title>cluster_diagrams/config</title>
<path fill="#ffffff" stroke="black" stroke-width="2" d="M28,-278C28,-278 339,-278 339,-278 345,-278 351,-284 351,-290 351,-290 351,-348 351,-348 351,-354 345,-360 339,-360 339,-360 28,-360 28,-360 22,-360 16,-354 16,-348 16,-348 16,-290 16,-290 16,-284 22,-278 28,-278"/>
<text text-anchor="middle" x="183.5" y="-348.8" font-family="Helvetica,sans-Serif" font-weight="bold" font-size="9.00">config</text>
</g>
<g id="clust4" class="cluster">
<title>cluster_packages</title>
<path fill="#ffffff" stroke="black" stroke-width="2" d="M235.5,-8C235.5,-8 310.5,-8 310.5,-8 316.5,-8 322.5,-14 322.5,-20 322.5,-20 322.5,-78 322.5,-78 322.5,-84 316.5,-90 310.5,-90 310.5,-90 235.5,-90 235.5,-90 229.5,-90 223.5,-84 223.5,-78 223.5,-78 223.5,-20 223.5,-20 223.5,-14 229.5,-8 235.5,-8"/>
<text text-anchor="middle" x="273" y="-78.8" font-family="Helvetica,sans-Serif" font-weight="bold" font-size="9.00">packages</text>
</g>
<g id="clust5" class="cluster">
<title>cluster_path</title>
<path fill="#ffffff" stroke="black" stroke-width="2" d="M250,-184C250,-184 296,-184 296,-184 302,-184 308,-190 308,-196 308,-196 308,-224 308,-224 308,-230 302,-236 296,-236 296,-236 250,-236 250,-236 244,-236 238,-230 238,-224 238,-224 238,-196 238,-196 238,-190 244,-184 250,-184"/>
<text text-anchor="middle" x="273" y="-224.8" font-family="Helvetica,sans-Serif" font-weight="bold" font-size="9.00">path</text>
</g>
<g id="clust6" class="cluster">
<title>cluster_tools</title>
<path fill="#ffffff" stroke="black" stroke-width="2" d="M67.5,-150C67.5,-150 146.5,-150 146.5,-150 152.5,-150 158.5,-156 158.5,-162 158.5,-162 158.5,-250 158.5,-250 158.5,-256 152.5,-262 146.5,-262 146.5,-262 67.5,-262 67.5,-262 61.5,-262 55.5,-256 55.5,-250 55.5,-250 55.5,-162 55.5,-162 55.5,-156 61.5,-150 67.5,-150"/>
<text text-anchor="middle" x="107" y="-250.8" font-family="Helvetica,sans-Serif" font-weight="bold" font-size="9.00">tools</text>
</g>
<!-- apps/backoffice&#45;client/ -->
<g id="node1" class="node">
<title>apps/backoffice&#45;client/</title>
<g id="a_node1"><a xlink:href="apps/backoffice-client/" xlink:title="no&#45;orphans">
<polygon fill="#ffffcc" stroke="orange" points="152.5,-116 63.5,-116 61.5,-114 61.5,-98 150.5,-98 152.5,-100 152.5,-116"/>
<polyline fill="none" stroke="orange" points="150.5,-114 61.5,-114 "/>
<polyline fill="none" stroke="orange" points="150.5,-114 150.5,-98 "/>
<polyline fill="none" stroke="orange" points="150.5,-114 152.5,-116 "/>
<text text-anchor="start" x="69.5" y="-104.8" font-family="Helvetica,sans-Serif" font-size="9.00" fill="orange">backoffice&#45;client</text>
</a>
</g>
</g>
<!-- fs -->
<g id="node2" class="node">
<title>fs</title>
<g id="a_node2"><a xlink:href="https://nodejs.org/api/fs.html" xlink:title="fs">
<path fill="#ffffcc" stroke="grey" d="M294,-116C294,-116 252,-116 252,-116 249,-116 246,-113 246,-110 246,-110 246,-104 246,-104 246,-101 249,-98 252,-98 252,-98 294,-98 294,-98 297,-98 300,-101 300,-104 300,-104 300,-110 300,-110 300,-113 297,-116 294,-116"/>
<text text-anchor="middle" x="273" y="-104.8" font-family="Helvetica,sans-Serif" font-size="9.00" fill="grey">fs</text>
</a>
</g>
</g>
<!-- apps/backoffice&#45;client/&#45;&gt;fs -->
<g id="edge1" class="edge">
<title>apps/backoffice&#45;client/&#45;&gt;fs</title>
<path fill="none" stroke="#000000" stroke-dasharray="5,2" stroke-opacity="0.200000" d="M152.81,-107C180.27,-107 214.77,-107 239.58,-107"/>
<polygon fill="#000000" fill-opacity="0.200000" stroke="#000000" stroke-opacity="0.200000" points="239.67,-109.1 245.67,-107 239.67,-104.9 239.67,-109.1"/>
</g>
<!-- path -->
<g id="node3" class="node">
<title>path</title>
<g id="a_node3"><a xlink:href="https://nodejs.org/api/path.html" xlink:title="path">
<path fill="#ffffcc" stroke="grey" d="M294,-146C294,-146 252,-146 252,-146 249,-146 246,-143 246,-140 246,-140 246,-134 246,-134 246,-131 249,-128 252,-128 252,-128 294,-128 294,-128 297,-128 300,-131 300,-134 300,-134 300,-140 300,-140 300,-143 297,-146 294,-146"/>
<text text-anchor="middle" x="273" y="-134.8" font-family="Helvetica,sans-Serif" font-size="9.00" fill="grey">path</text>
</a>
</g>
</g>
<!-- apps/backoffice&#45;client/&#45;&gt;path -->
<g id="edge2" class="edge">
<title>apps/backoffice&#45;client/&#45;&gt;path</title>
<path fill="none" stroke="#000000" stroke-dasharray="5,2" stroke-opacity="0.200000" d="M152.81,-115.2C180.27,-120.22 214.77,-126.53 239.58,-131.07"/>
<polygon fill="#000000" fill-opacity="0.200000" stroke="#000000" stroke-opacity="0.200000" points="239.39,-133.17 245.67,-132.18 240.15,-129.04 239.39,-133.17"/>
</g>
<!-- url -->
<g id="node4" class="node">
<title>url</title>
<g id="a_node4"><a xlink:href="https://nodejs.org/api/url.html" xlink:title="url">
<path fill="#ffffcc" stroke="grey" d="M294,-176C294,-176 252,-176 252,-176 249,-176 246,-173 246,-170 246,-170 246,-164 246,-164 246,-161 249,-158 252,-158 252,-158 294,-158 294,-158 297,-158 300,-161 300,-164 300,-164 300,-170 300,-170 300,-173 297,-176 294,-176"/>
<text text-anchor="middle" x="273" y="-164.8" font-family="Helvetica,sans-Serif" font-size="9.00" fill="grey">url</text>
</a>
</g>
</g>
<!-- apps/backoffice&#45;client/&#45;&gt;url -->
<g id="edge3" class="edge">
<title>apps/backoffice&#45;client/&#45;&gt;url</title>
<path fill="none" stroke="#000000" stroke-dasharray="5,2" stroke-opacity="0.200000" d="M125.97,-116.12C149.04,-127.71 187.88,-146.85 203,-152 214.76,-156 228.02,-159.19 239.75,-161.58"/>
<polygon fill="#000000" fill-opacity="0.200000" stroke="#000000" stroke-opacity="0.200000" points="239.44,-163.65 245.73,-162.75 240.25,-159.53 239.44,-163.65"/>
</g>
<!-- packages/ui/ -->
<g id="node5" class="node">
<title>packages/ui/</title>
<g id="a_node5"><a xlink:href="packages/ui/" xlink:title="no&#45;orphans">
<polygon fill="#ccffcc" stroke="orange" points="300,-64 248,-64 246,-62 246,-46 298,-46 300,-48 300,-64"/>
<polyline fill="none" stroke="orange" points="298,-62 246,-62 "/>
<polyline fill="none" stroke="orange" points="298,-62 298,-46 "/>
<polyline fill="none" stroke="orange" points="298,-62 300,-64 "/>
<text text-anchor="start" x="268.5" y="-52.8" font-family="Helvetica,sans-Serif" font-size="9.00" fill="orange">ui</text>
</a>
</g>
</g>
<!-- apps/backoffice&#45;client/&#45;&gt;packages/ui/ -->
<g id="edge4" class="edge">
<title>apps/backoffice&#45;client/&#45;&gt;packages/ui/</title>
<path fill="none" stroke="#000000" stroke-width="2" stroke-opacity="0.200000" d="M152.74,-100.84C164.97,-98.62 178.12,-95.71 190,-92 210.85,-85.5 233.39,-75.06 249.55,-66.93"/>
<polygon fill="#000000" fill-opacity="0.200000" stroke="#000000" stroke-width="2" stroke-opacity="0.200000" points="250.81,-68.64 255.2,-64.04 248.9,-64.9 250.81,-68.64"/>
</g>
<!-- apps/game&#45;client/ -->
<g id="node6" class="node">
<title>apps/game&#45;client/</title>
<g id="a_node6"><a xlink:href="apps/game-client/" xlink:title="no&#45;orphans">
<polygon fill="#ffffcc" stroke="orange" points="142,-86 74,-86 72,-84 72,-68 140,-68 142,-70 142,-86"/>
<polyline fill="none" stroke="orange" points="140,-84 72,-84 "/>
<polyline fill="none" stroke="orange" points="140,-84 140,-68 "/>
<polyline fill="none" stroke="orange" points="140,-84 142,-86 "/>
<text text-anchor="start" x="80" y="-74.8" font-family="Helvetica,sans-Serif" font-size="9.00" fill="orange">game&#45;client</text>
</a>
</g>
</g>
<!-- apps/game&#45;client/&#45;&gt;fs -->
<g id="edge5" class="edge">
<title>apps/game&#45;client/&#45;&gt;fs</title>
<path fill="none" stroke="#000000" stroke-dasharray="5,2" stroke-opacity="0.200000" d="M142.38,-83.29C171.02,-88.53 211.52,-95.94 239.6,-101.07"/>
<polygon fill="#000000" fill-opacity="0.200000" stroke="#000000" stroke-opacity="0.200000" points="239.47,-103.18 245.75,-102.2 240.22,-99.05 239.47,-103.18"/>
</g>
<!-- apps/game&#45;client/&#45;&gt;path -->
<g id="edge6" class="edge">
<title>apps/game&#45;client/&#45;&gt;path</title>
<path fill="none" stroke="#000000" stroke-dasharray="5,2" stroke-opacity="0.200000" d="M142.14,-76.12C158.16,-77.36 176.63,-81.38 190,-92 201.38,-101.04 191.77,-112.77 203,-122 213.25,-130.43 227.18,-134.41 239.83,-136.2"/>
<polygon fill="#000000" fill-opacity="0.200000" stroke="#000000" stroke-opacity="0.200000" points="239.72,-138.3 245.92,-136.91 240.21,-134.13 239.72,-138.3"/>
</g>
<!-- apps/game&#45;client/&#45;&gt;url -->
<g id="edge7" class="edge">
<title>apps/game&#45;client/&#45;&gt;url</title>
<path fill="none" stroke="#000000" stroke-dasharray="5,2" stroke-opacity="0.200000" d="M142.27,-74.97C158.72,-75.87 177.52,-79.92 190,-92 209.6,-110.98 183.71,-132.7 203,-152 212.53,-161.54 226.61,-165.65 239.57,-167.24"/>
<polygon fill="#000000" fill-opacity="0.200000" stroke="#000000" stroke-opacity="0.200000" points="239.65,-169.35 245.82,-167.82 240.04,-165.17 239.65,-169.35"/>
</g>
<!-- apps/game&#45;client/&#45;&gt;packages/ui/ -->
<g id="edge8" class="edge">
<title>apps/game&#45;client/&#45;&gt;packages/ui/</title>
<path fill="none" stroke="#000000" stroke-width="2" stroke-opacity="0.200000" d="M142.38,-72.39C171.02,-68.55 211.52,-63.11 239.6,-59.35"/>
<polygon fill="#000000" fill-opacity="0.200000" stroke="#000000" stroke-width="2" stroke-opacity="0.200000" points="240.08,-61.4 245.75,-58.52 239.52,-57.24 240.08,-61.4"/>
</g>
<!-- diagrams/config/dependency&#45;cruiser.base.js -->
<g id="node7" class="node">
<title>diagrams/config/dependency&#45;cruiser.base.js</title>
<g id="a_node7"><a xlink:href="diagrams/config/dependency-cruiser.base.js" xlink:title="dependency&#45;cruiser.base.js">
<path fill="#ffffcc" stroke="black" d="M337,-319C337,-319 209,-319 209,-319 206,-319 203,-316 203,-313 203,-313 203,-307 203,-307 203,-304 206,-301 209,-301 209,-301 337,-301 337,-301 340,-301 343,-304 343,-307 343,-307 343,-313 343,-313 343,-316 340,-319 337,-319"/>
<text text-anchor="start" x="211" y="-307.8" font-family="Helvetica,sans-Serif" font-size="9.00">dependency&#45;cruiser.base.js</text>
</a>
</g>
</g>
<!-- diagrams/config/dependency&#45;cruiser.monorepo.js -->
<g id="node8" class="node">
<title>diagrams/config/dependency&#45;cruiser.monorepo.js</title>
<g id="a_node8"><a xlink:href="diagrams/config/dependency-cruiser.monorepo.js" xlink:title="dependency&#45;cruiser.monorepo.js">
<path fill="#ffffcc" stroke="black" d="M183,-334C183,-334 31,-334 31,-334 28,-334 25,-331 25,-328 25,-328 25,-322 25,-322 25,-319 28,-316 31,-316 31,-316 183,-316 183,-316 186,-316 189,-319 189,-322 189,-322 189,-328 189,-328 189,-331 186,-334 183,-334"/>
<text text-anchor="start" x="33" y="-322.8" font-family="Helvetica,sans-Serif" font-size="9.00">dependency&#45;cruiser.monorepo.js</text>
</a>
</g>
</g>
<!-- diagrams/config/dependency&#45;cruiser.monorepo.js&#45;&gt;diagrams/config/dependency&#45;cruiser.base.js -->
<g id="edge9" class="edge">
<title>diagrams/config/dependency&#45;cruiser.monorepo.js&#45;&gt;diagrams/config/dependency&#45;cruiser.base.js</title>
<path fill="none" stroke="#000000" stroke-width="2" stroke-opacity="0.200000" d="M189.04,-317.59C191.44,-317.37 193.84,-317.15 196.24,-316.93"/>
<polygon fill="#000000" fill-opacity="0.200000" stroke="#000000" stroke-width="2" stroke-opacity="0.200000" points="196.77,-318.99 202.55,-316.35 196.39,-314.81 196.77,-318.99"/>
</g>
<!-- diagrams/config/dependency&#45;cruiser.nextjs&#45;app.js -->
<g id="node9" class="node">
<title>diagrams/config/dependency&#45;cruiser.nextjs&#45;app.js</title>
<g id="a_node9"><a xlink:href="diagrams/config/dependency-cruiser.nextjs-app.js" xlink:title="dependency&#45;cruiser.nextjs&#45;app.js">
<path fill="#ffffcc" stroke="black" d="M184,-304C184,-304 30,-304 30,-304 27,-304 24,-301 24,-298 24,-298 24,-292 24,-292 24,-289 27,-286 30,-286 30,-286 184,-286 184,-286 187,-286 190,-289 190,-292 190,-292 190,-298 190,-298 190,-301 187,-304 184,-304"/>
<text text-anchor="start" x="32" y="-292.8" font-family="Helvetica,sans-Serif" font-size="9.00">dependency&#45;cruiser.nextjs&#45;app.js</text>
</a>
</g>
</g>
<!-- diagrams/config/dependency&#45;cruiser.nextjs&#45;app.js&#45;&gt;diagrams/config/dependency&#45;cruiser.base.js -->
<g id="edge10" class="edge">
<title>diagrams/config/dependency&#45;cruiser.nextjs&#45;app.js&#45;&gt;diagrams/config/dependency&#45;cruiser.base.js</title>
<path fill="none" stroke="#000000" stroke-width="2" stroke-opacity="0.200000" d="M190.48,-302.54C192.55,-302.73 194.63,-302.92 196.7,-303.11"/>
<polygon fill="#000000" fill-opacity="0.200000" stroke="#000000" stroke-width="2" stroke-opacity="0.200000" points="196.71,-305.22 202.88,-303.68 197.09,-301.04 196.71,-305.22"/>
</g>
<!-- packages/tailwind&#45;config/ -->
<g id="node10" class="node">
<title>packages/tailwind&#45;config/</title>
<g id="a_node10"><a xlink:href="packages/tailwind-config/" xlink:title="no&#45;orphans">
<polygon fill="#ccffcc" stroke="orange" points="314.5,-34 233.5,-34 231.5,-32 231.5,-16 312.5,-16 314.5,-18 314.5,-34"/>
<polyline fill="none" stroke="orange" points="312.5,-32 231.5,-32 "/>
<polyline fill="none" stroke="orange" points="312.5,-32 312.5,-16 "/>
<polyline fill="none" stroke="orange" points="312.5,-32 314.5,-34 "/>
<text text-anchor="start" x="239.5" y="-22.8" font-family="Helvetica,sans-Serif" font-size="9.00" fill="orange">tailwind&#45;config</text>
</a>
</g>
</g>
<!-- path/posix -->
<g id="node11" class="node">
<title>path/posix</title>
<g id="a_node11"><a xlink:href="https://nodejs.org/api/path.html" xlink:title="posix">
<path fill="#ffffcc" stroke="grey" d="M294,-210C294,-210 252,-210 252,-210 249,-210 246,-207 246,-204 246,-204 246,-198 246,-198 246,-195 249,-192 252,-192 252,-192 294,-192 294,-192 297,-192 300,-195 300,-198 300,-198 300,-204 300,-204 300,-207 297,-210 294,-210"/>
<text text-anchor="start" x="261" y="-198.8" font-family="Helvetica,sans-Serif" font-size="9.00" fill="grey">posix</text>
</a>
</g>
</g>
<!-- tools/e2e/ -->
<g id="node12" class="node">
<title>tools/e2e/</title>
<g id="a_node12"><a xlink:href="tools/e2e/" xlink:title="no&#45;orphans">
<polygon fill="#ffffcc" stroke="orange" points="134,-236 82,-236 80,-234 80,-218 132,-218 134,-220 134,-236"/>
<polyline fill="none" stroke="orange" points="132,-234 80,-234 "/>
<polyline fill="none" stroke="orange" points="132,-234 132,-218 "/>
<polyline fill="none" stroke="orange" points="132,-234 134,-236 "/>
<text text-anchor="start" x="98.5" y="-224.8" font-family="Helvetica,sans-Serif" font-size="9.00" fill="orange">e2e</text>
</a>
</g>
</g>
<!-- tools/storybook/ -->
<g id="node13" class="node">
<title>tools/storybook/</title>
<g id="a_node13"><a xlink:href="tools/storybook/" xlink:title="storybook">
<polygon fill="#ffffcc" stroke="black" points="137.5,-206 78.5,-206 76.5,-204 76.5,-188 135.5,-188 137.5,-190 137.5,-206"/>
<polyline fill="none" stroke="black" points="135.5,-204 76.5,-204 "/>
<polyline fill="none" stroke="black" points="135.5,-204 135.5,-188 "/>
<polyline fill="none" stroke="black" points="135.5,-204 137.5,-206 "/>
<text text-anchor="start" x="84.5" y="-194.8" font-family="Helvetica,sans-Serif" font-size="9.00">storybook</text>
</a>
</g>
</g>
<!-- tools/storybook/&#45;&gt;path -->
<g id="edge11" class="edge">
<title>tools/storybook/&#45;&gt;path</title>
<path fill="none" stroke="#000000" stroke-dasharray="5,2" stroke-opacity="0.200000" d="M137.73,-198.16C154.68,-197.33 175.38,-193.61 190,-182 201.38,-172.96 191.77,-161.23 203,-152 213.25,-143.57 227.18,-139.59 239.83,-137.8"/>
<polygon fill="#000000" fill-opacity="0.200000" stroke="#000000" stroke-opacity="0.200000" points="240.21,-139.87 245.92,-137.09 239.72,-135.7 240.21,-139.87"/>
</g>
<!-- tools/storybook/&#45;&gt;url -->
<g id="edge12" class="edge">
<title>tools/storybook/&#45;&gt;url</title>
<path fill="none" stroke="#000000" stroke-dasharray="5,2" stroke-opacity="0.200000" d="M137.7,-191.57C166.48,-186.3 210.02,-178.34 239.66,-172.92"/>
<polygon fill="#000000" fill-opacity="0.200000" stroke="#000000" stroke-opacity="0.200000" points="240.24,-174.94 245.77,-171.8 239.49,-170.81 240.24,-174.94"/>
</g>
<!-- tools/web&#45;docs&#45;client/ -->
<g id="node14" class="node">
<title>tools/web&#45;docs&#45;client/</title>
<g id="a_node14"><a xlink:href="tools/web-docs-client/" xlink:title="web&#45;docs&#45;client">
<polygon fill="#ffffcc" stroke="black" points="150.5,-176 65.5,-176 63.5,-174 63.5,-158 148.5,-158 150.5,-160 150.5,-176"/>
<polyline fill="none" stroke="black" points="148.5,-174 63.5,-174 "/>
<polyline fill="none" stroke="black" points="148.5,-174 148.5,-158 "/>
<polyline fill="none" stroke="black" points="148.5,-174 150.5,-176 "/>
<text text-anchor="start" x="71.5" y="-164.8" font-family="Helvetica,sans-Serif" font-size="9.00">web&#45;docs&#45;client</text>
</a>
</g>
</g>
<!-- tools/web&#45;docs&#45;client/&#45;&gt;fs -->
<g id="edge13" class="edge">
<title>tools/web&#45;docs&#45;client/&#45;&gt;fs</title>
<path fill="none" stroke="#000000" stroke-dasharray="5,2" stroke-opacity="0.200000" d="M150.52,-162.22C164.19,-159.04 178.7,-153.76 190,-145 199.28,-137.81 193.55,-128.97 203,-122 213.6,-114.19 227.45,-110.29 239.96,-108.4"/>
<polygon fill="#000000" fill-opacity="0.200000" stroke="#000000" stroke-opacity="0.200000" points="240.3,-110.47 245.98,-107.62 239.76,-106.31 240.3,-110.47"/>
</g>
<!-- tools/web&#45;docs&#45;client/&#45;&gt;path -->
<g id="edge14" class="edge">
<title>tools/web&#45;docs&#45;client/&#45;&gt;path</title>
<path fill="none" stroke="#000000" stroke-dasharray="5,2" stroke-opacity="0.200000" d="M150.66,-159.2C178.6,-154.09 214.53,-147.51 240.02,-142.85"/>
<polygon fill="#000000" fill-opacity="0.200000" stroke="#000000" stroke-opacity="0.200000" points="240.41,-144.91 245.94,-141.77 239.66,-140.78 240.41,-144.91"/>
</g>
<!-- tools/web&#45;docs&#45;client/&#45;&gt;url -->
<g id="edge16" class="edge">
<title>tools/web&#45;docs&#45;client/&#45;&gt;url</title>
<path fill="none" stroke="#000000" stroke-dasharray="5,2" stroke-opacity="0.200000" d="M150.66,-167C178.48,-167 214.22,-167 239.7,-167"/>
<polygon fill="#000000" fill-opacity="0.200000" stroke="#000000" stroke-opacity="0.200000" points="239.94,-169.1 245.94,-167 239.94,-164.9 239.94,-169.1"/>
</g>
<!-- tools/web&#45;docs&#45;client/&#45;&gt;path/posix -->
<g id="edge15" class="edge">
<title>tools/web&#45;docs&#45;client/&#45;&gt;path/posix</title>
<path fill="none" stroke="#000000" stroke-dasharray="5,2" stroke-opacity="0.200000" d="M150.63,-174.41C163.32,-176.72 177.25,-179.36 190,-182 206.55,-185.43 224.88,-189.64 240.01,-193.22"/>
<polygon fill="#000000" fill-opacity="0.200000" stroke="#000000" stroke-opacity="0.200000" points="239.53,-195.27 245.85,-194.61 240.5,-191.18 239.53,-195.27"/>
</g>
<!-- vitest.config.mts -->
<g id="node15" class="node">
<title>vitest.config.mts</title>
<g id="a_node15"><a xlink:href="vitest.config.mts" xlink:title="no&#45;orphans">
<path fill="#ccffcc" stroke="orange" d="M147.5,-412C147.5,-412 66.5,-412 66.5,-412 63.5,-412 60.5,-409 60.5,-406 60.5,-406 60.5,-400 60.5,-400 60.5,-397 63.5,-394 66.5,-394 66.5,-394 147.5,-394 147.5,-394 150.5,-394 153.5,-397 153.5,-400 153.5,-400 153.5,-406 153.5,-406 153.5,-409 150.5,-412 147.5,-412"/>
<text text-anchor="middle" x="107" y="-400.8" font-family="Helvetica,sans-Serif" font-size="9.00" fill="orange">vitest.config.mts</text>
</a>
</g>
</g>
</g>
</svg>
