<?xml version="1.0" encoding="UTF-8" standalone="no"?>
<!DOCTYPE svg PUBLIC "-//W3C//DTD SVG 1.1//EN"
 "http://www.w3.org/Graphics/SVG/1.1/DTD/svg11.dtd">
<!-- Generated by graphviz version 2.43.0 (0)
 -->
<!-- Title: dependency&#45;cruiser output Pages: 1 -->
<svg width="514pt" height="644pt"
 viewBox="0.00 0.00 514.00 644.00" xmlns="http://www.w3.org/2000/svg" xmlns:xlink="http://www.w3.org/1999/xlink">
<g id="graph0" class="graph" transform="scale(1 1) rotate(0) translate(4 640)">
<title>dependency&#45;cruiser output</title>
<polygon fill="white" stroke="transparent" points="-4,4 -4,-640 510,-640 510,4 -4,4"/>
<g id="clust1" class="cluster">
<title>cluster_..</title>
<path fill="#ffffff" stroke="black" stroke-width="2" d="M272,-68C272,-68 486,-68 486,-68 492,-68 498,-74 498,-80 498,-80 498,-278 498,-278 498,-284 492,-290 486,-290 486,-290 272,-290 272,-290 266,-290 260,-284 260,-278 260,-278 260,-80 260,-80 260,-74 266,-68 272,-68"/>
<text text-anchor="middle" x="379" y="-278.8" font-family="Helvetica,sans-Serif" font-weight="bold" font-size="9.00">..</text>
</g>
<g id="clust2" class="cluster">
<title>cluster_../..</title>
<path fill="#ffffff" stroke="black" stroke-width="2" d="M280,-76C280,-76 478,-76 478,-76 484,-76 490,-82 490,-88 490,-88 490,-252 490,-252 490,-258 484,-264 478,-264 478,-264 280,-264 280,-264 274,-264 268,-258 268,-252 268,-252 268,-88 268,-88 268,-82 274,-76 280,-76"/>
<text text-anchor="middle" x="379" y="-252.8" font-family="Helvetica,sans-Serif" font-weight="bold" font-size="9.00">..</text>
</g>
<g id="clust3" class="cluster">
<title>cluster_../../packages</title>
<path fill="#ffffff" stroke="black" stroke-width="2" d="M288,-84C288,-84 470,-84 470,-84 476,-84 482,-90 482,-96 482,-96 482,-226 482,-226 482,-232 476,-238 470,-238 470,-238 288,-238 288,-238 282,-238 276,-232 276,-226 276,-226 276,-96 276,-96 276,-90 282,-84 288,-84"/>
<text text-anchor="middle" x="379" y="-226.8" font-family="Helvetica,sans-Serif" font-weight="bold" font-size="9.00">packages</text>
</g>
<g id="clust4" class="cluster">
<title>cluster_../../packages/ui</title>
<path fill="#ffffff" stroke="black" stroke-width="2" d="M296,-92C296,-92 462,-92 462,-92 468,-92 474,-98 474,-104 474,-104 474,-200 474,-200 474,-206 468,-212 462,-212 462,-212 296,-212 296,-212 290,-212 284,-206 284,-200 284,-200 284,-104 284,-104 284,-98 290,-92 296,-92"/>
<text text-anchor="middle" x="379" y="-200.8" font-family="Helvetica,sans-Serif" font-weight="bold" font-size="9.00">ui</text>
</g>
<g id="clust5" class="cluster">
<title>cluster_../../packages/ui/src</title>
<path fill="#ffffff" stroke="black" stroke-width="2" d="M304,-100C304,-100 454,-100 454,-100 460,-100 466,-106 466,-112 466,-112 466,-174 466,-174 466,-180 460,-186 454,-186 454,-186 304,-186 304,-186 298,-186 292,-180 292,-174 292,-174 292,-112 292,-112 292,-106 298,-100 304,-100"/>
<text text-anchor="middle" x="379" y="-174.8" font-family="Helvetica,sans-Serif" font-weight="bold" font-size="9.00">src</text>
</g>
<g id="clust6" class="cluster">
<title>cluster_../../packages/ui/src/components</title>
<path fill="#ffffff" stroke="black" stroke-width="2" d="M312,-108C312,-108 446,-108 446,-108 452,-108 458,-114 458,-120 458,-120 458,-148 458,-148 458,-154 452,-160 446,-160 446,-160 312,-160 312,-160 306,-160 300,-154 300,-148 300,-148 300,-120 300,-120 300,-114 306,-108 312,-108"/>
<text text-anchor="middle" x="379" y="-148.8" font-family="Helvetica,sans-Serif" font-weight="bold" font-size="9.00">components</text>
</g>
<g id="clust7" class="cluster">
<title>cluster_node_modules</title>
<path fill="#ffffff" stroke="black" stroke-width="2" d="M346,-8C346,-8 412,-8 412,-8 418,-8 424,-14 424,-20 424,-20 424,-48 424,-48 424,-54 418,-60 412,-60 412,-60 346,-60 346,-60 340,-60 334,-54 334,-48 334,-48 334,-20 334,-20 334,-14 340,-8 346,-8"/>
<text text-anchor="middle" x="379" y="-48.8" font-family="Helvetica,sans-Serif" font-weight="bold" font-size="9.00">node_modules</text>
</g>
<g id="clust8" class="cluster">
<title>cluster_src</title>
<path fill="#ffffff" stroke="black" stroke-width="2" d="M20,-298C20,-298 423.5,-298 423.5,-298 429.5,-298 435.5,-304 435.5,-310 435.5,-310 435.5,-616 435.5,-616 435.5,-622 429.5,-628 423.5,-628 423.5,-628 20,-628 20,-628 14,-628 8,-622 8,-616 8,-616 8,-310 8,-310 8,-304 14,-298 20,-298"/>
<text text-anchor="middle" x="221.75" y="-616.8" font-family="Helvetica,sans-Serif" font-weight="bold" font-size="9.00">src</text>
</g>
<g id="clust9" class="cluster">
<title>cluster_src/app</title>
<path fill="#ffffff" stroke="black" stroke-width="2" d="M28,-353C28,-353 108,-353 108,-353 114,-353 120,-359 120,-365 120,-365 120,-513 120,-513 120,-519 114,-525 108,-525 108,-525 28,-525 28,-525 22,-525 16,-519 16,-513 16,-513 16,-365 16,-365 16,-359 22,-353 28,-353"/>
<text text-anchor="middle" x="68" y="-513.8" font-family="Helvetica,sans-Serif" font-weight="bold" font-size="9.00">app</text>
</g>
<g id="clust10" class="cluster">
<title>cluster_src/app/en</title>
<path fill="#ffffff" stroke="black" stroke-width="2" d="M36,-387C36,-387 100,-387 100,-387 106,-387 112,-393 112,-399 112,-399 112,-487 112,-487 112,-493 106,-499 100,-499 100,-499 36,-499 36,-499 30,-499 24,-493 24,-487 24,-487 24,-399 24,-399 24,-393 30,-387 36,-387"/>
<text text-anchor="middle" x="68" y="-487.8" font-family="Helvetica,sans-Serif" font-weight="bold" font-size="9.00">en</text>
</g>
<g id="clust11" class="cluster">
<title>cluster_src/app/en/debug</title>
<path fill="#ffffff" stroke="black" stroke-width="2" d="M44,-421C44,-421 92,-421 92,-421 98,-421 104,-427 104,-433 104,-433 104,-461 104,-461 104,-467 98,-473 92,-473 92,-473 44,-473 44,-473 38,-473 32,-467 32,-461 32,-461 32,-433 32,-433 32,-427 38,-421 44,-421"/>
<text text-anchor="middle" x="68" y="-461.8" font-family="Helvetica,sans-Serif" font-weight="bold" font-size="9.00">debug</text>
</g>
<g id="clust12" class="cluster">
<title>cluster_src/config</title>
<path fill="#ffffff" stroke="black" stroke-width="2" d="M140,-306C140,-306 240,-306 240,-306 246,-306 252,-312 252,-318 252,-318 252,-376 252,-376 252,-382 246,-388 240,-388 240,-388 140,-388 140,-388 134,-388 128,-382 128,-376 128,-376 128,-318 128,-318 128,-312 134,-306 140,-306"/>
<text text-anchor="middle" x="190" y="-376.8" font-family="Helvetica,sans-Serif" font-weight="bold" font-size="9.00">config</text>
</g>
<g id="clust13" class="cluster">
<title>cluster_src/domains</title>
<path fill="#ffffff" stroke="black" stroke-width="2" d="M142,-396C142,-396 415.5,-396 415.5,-396 421.5,-396 427.5,-402 427.5,-408 427.5,-408 427.5,-590 427.5,-590 427.5,-596 421.5,-602 415.5,-602 415.5,-602 142,-602 142,-602 136,-602 130,-596 130,-590 130,-590 130,-408 130,-408 130,-402 136,-396 142,-396"/>
<text text-anchor="middle" x="278.75" y="-590.8" font-family="Helvetica,sans-Serif" font-weight="bold" font-size="9.00">domains</text>
</g>
<g id="clust14" class="cluster">
<title>cluster_src/domains/app&#45;shell</title>
<path fill="#ffffff" stroke="black" stroke-width="2" d="M153,-524C153,-524 407.5,-524 407.5,-524 413.5,-524 419.5,-530 419.5,-536 419.5,-536 419.5,-564 419.5,-564 419.5,-570 413.5,-576 407.5,-576 407.5,-576 153,-576 153,-576 147,-576 141,-570 141,-564 141,-564 141,-536 141,-536 141,-530 147,-524 153,-524"/>
<text text-anchor="middle" x="280.25" y="-564.8" font-family="Helvetica,sans-Serif" font-weight="bold" font-size="9.00">app&#45;shell</text>
</g>
<g id="clust15" class="cluster">
<title>cluster_src/domains/debug</title>
<path fill="#ffffff" stroke="black" stroke-width="2" d="M150,-464C150,-464 230,-464 230,-464 236,-464 242,-470 242,-476 242,-476 242,-504 242,-504 242,-510 236,-516 230,-516 230,-516 150,-516 150,-516 144,-516 138,-510 138,-504 138,-504 138,-476 138,-476 138,-470 144,-464 150,-464"/>
<text text-anchor="middle" x="190" y="-504.8" font-family="Helvetica,sans-Serif" font-weight="bold" font-size="9.00">debug</text>
</g>
<g id="clust16" class="cluster">
<title>cluster_src/domains/home</title>
<path fill="#ffffff" stroke="black" stroke-width="2" d="M152,-404C152,-404 228,-404 228,-404 234,-404 240,-410 240,-416 240,-416 240,-444 240,-444 240,-450 234,-456 228,-456 228,-456 152,-456 152,-456 146,-456 140,-450 140,-444 140,-444 140,-416 140,-416 140,-410 146,-404 152,-404"/>
<text text-anchor="middle" x="190" y="-444.8" font-family="Helvetica,sans-Serif" font-weight="bold" font-size="9.00">home</text>
</g>
<!-- ../../packages/ui/src/components/DeploymentDebugPanel.tsx -->
<g id="node1" class="node">
<title>../../packages/ui/src/components/DeploymentDebugPanel.tsx</title>
<g id="a_node1"><a xlink:href="../../packages/ui/src/components/DeploymentDebugPanel.tsx" xlink:title="DeploymentDebugPanel.tsx">
<polygon fill="#bbfeff" stroke="black" points="450,-134 448.5,-136 438,-136 436.5,-134 308,-134 308,-116 450,-116 450,-134"/>
<text text-anchor="start" x="316" y="-122.8" font-family="Helvetica,sans-Serif" font-size="9.00">DeploymentDebugPanel.tsx</text>
</a>
</g>
</g>
<!-- node_modules/.pnpm -->
<g id="node2" class="node">
<title>node_modules/.pnpm</title>
<g id="a_node2"><a xlink:href="https://www.npmjs.com/package/.pnpm" xlink:title=".pnpm">
<polygon fill="#c40b0a" fill-opacity="0.101961" stroke="black" points="406,-34 354,-34 352,-32 352,-16 404,-16 406,-18 406,-34"/>
<polyline fill="none" stroke="black" points="404,-32 352,-32 "/>
<polyline fill="none" stroke="black" points="404,-32 404,-16 "/>
<polyline fill="none" stroke="black" points="404,-32 406,-34 "/>
<text text-anchor="start" x="363.5" y="-22.8" font-family="Helvetica,sans-Serif" font-size="9.00" fill="#c40b0a">.pnpm</text>
</a>
</g>
</g>
<!-- src/app/en/debug/page.tsx -->
<g id="node3" class="node">
<title>src/app/en/debug/page.tsx</title>
<g id="a_node3"><a xlink:href="src/app/en/debug/page.tsx" xlink:title="page.tsx">
<path fill="#bbfeff" stroke="black" d="M90,-447C90,-447 46,-447 46,-447 43,-447 40,-444 40,-441 40,-441 40,-435 40,-435 40,-432 43,-429 46,-429 46,-429 90,-429 90,-429 93,-429 96,-432 96,-435 96,-435 96,-441 96,-441 96,-444 93,-447 90,-447"/>
<text text-anchor="start" x="48" y="-435.8" font-family="Helvetica,sans-Serif" font-size="9.00">page.tsx</text>
</a>
</g>
</g>
<!-- src/domains/debug/debug&#45;page.tsx -->
<g id="node4" class="node">
<title>src/domains/debug/debug&#45;page.tsx</title>
<g id="a_node4"><a xlink:href="src/domains/debug/debug-page.tsx" xlink:title="debug&#45;page.tsx">
<path fill="#bbfeff" stroke="black" d="M228,-490C228,-490 152,-490 152,-490 149,-490 146,-487 146,-484 146,-484 146,-478 146,-478 146,-475 149,-472 152,-472 152,-472 228,-472 228,-472 231,-472 234,-475 234,-478 234,-478 234,-484 234,-484 234,-487 231,-490 228,-490"/>
<text text-anchor="start" x="154" y="-478.8" font-family="Helvetica,sans-Serif" font-size="9.00">debug&#45;page.tsx</text>
</a>
</g>
</g>
<!-- src/app/en/debug/page.tsx&#45;&gt;src/domains/debug/debug&#45;page.tsx -->
<g id="edge1" class="edge">
<title>src/app/en/debug/page.tsx&#45;&gt;src/domains/debug/debug&#45;page.tsx</title>
<path fill="none" stroke="#000000" stroke-width="2" stroke-opacity="0.200000" d="M94.16,-447.01C112.8,-453.69 138.3,-462.83 158.17,-469.95"/>
<polygon fill="#000000" fill-opacity="0.200000" stroke="#000000" stroke-width="2" stroke-opacity="0.200000" points="163.17,-473.97 158.23,-469.97 164.59,-470.02 163.17,-473.97"/>
</g>
<!-- src/domains/debug/debug&#45;page.tsx&#45;&gt;../../packages/ui/src/components/DeploymentDebugPanel.tsx -->
<g id="edge10" class="edge">
<title>src/domains/debug/debug&#45;page.tsx&#45;&gt;../../packages/ui/src/components/DeploymentDebugPanel.tsx</title>
<path fill="none" stroke="#000000" stroke-width="2" stroke-opacity="0.200000" d="M231.61,-471.93C239.08,-468.8 246.31,-464.61 252,-459 347.25,-365.14 371.45,-192.22 376.7,-140.2"/>
<polygon fill="#000000" fill-opacity="0.200000" stroke="#000000" stroke-width="2" stroke-opacity="0.200000" points="378.79,-140.37 377.27,-134.2 374.61,-139.97 378.79,-140.37"/>
</g>
<!-- src/app/en/page.tsx -->
<g id="node5" class="node">
<title>src/app/en/page.tsx</title>
<g id="a_node5"><a xlink:href="src/app/en/page.tsx" xlink:title="page.tsx">
<path fill="#bbfeff" stroke="black" d="M90,-413C90,-413 46,-413 46,-413 43,-413 40,-410 40,-407 40,-407 40,-401 40,-401 40,-398 43,-395 46,-395 46,-395 90,-395 90,-395 93,-395 96,-398 96,-401 96,-401 96,-407 96,-407 96,-410 93,-413 90,-413"/>
<text text-anchor="start" x="48" y="-401.8" font-family="Helvetica,sans-Serif" font-size="9.00">page.tsx</text>
</a>
</g>
</g>
<!-- src/domains/home/home&#45;page.tsx -->
<g id="node6" class="node">
<title>src/domains/home/home&#45;page.tsx</title>
<g id="a_node6"><a xlink:href="src/domains/home/home-page.tsx" xlink:title="home&#45;page.tsx">
<path fill="#bbfeff" stroke="black" d="M226,-430C226,-430 154,-430 154,-430 151,-430 148,-427 148,-424 148,-424 148,-418 148,-418 148,-415 151,-412 154,-412 154,-412 226,-412 226,-412 229,-412 232,-415 232,-418 232,-418 232,-424 232,-424 232,-427 229,-430 226,-430"/>
<text text-anchor="start" x="156" y="-418.8" font-family="Helvetica,sans-Serif" font-size="9.00">home&#45;page.tsx</text>
</a>
</g>
</g>
<!-- src/app/en/page.tsx&#45;&gt;src/domains/home/home&#45;page.tsx -->
<g id="edge2" class="edge">
<title>src/app/en/page.tsx&#45;&gt;src/domains/home/home&#45;page.tsx</title>
<path fill="none" stroke="#000000" stroke-width="2" stroke-opacity="0.200000" d="M96.23,-407.86C109.66,-409.76 126.25,-412.11 141.67,-414.3"/>
<polygon fill="#000000" fill-opacity="0.200000" stroke="#000000" stroke-width="2" stroke-opacity="0.200000" points="147.44,-417.23 141.8,-414.31 148.03,-413.08 147.44,-417.23"/>
</g>
<!-- src/app/layout.tsx -->
<g id="node7" class="node">
<title>src/app/layout.tsx</title>
<g id="a_node7"><a xlink:href="src/app/layout.tsx" xlink:title="layout.tsx">
<path fill="#bbfeff" stroke="black" d="M92.5,-379C92.5,-379 43.5,-379 43.5,-379 40.5,-379 37.5,-376 37.5,-373 37.5,-373 37.5,-367 37.5,-367 37.5,-364 40.5,-361 43.5,-361 43.5,-361 92.5,-361 92.5,-361 95.5,-361 98.5,-364 98.5,-367 98.5,-367 98.5,-373 98.5,-373 98.5,-376 95.5,-379 92.5,-379"/>
<text text-anchor="start" x="45.5" y="-367.8" font-family="Helvetica,sans-Serif" font-size="9.00">layout.tsx</text>
</a>
</g>
</g>
<!-- src/app/layout.tsx&#45;&gt;node_modules/.pnpm -->
<g id="edge6" class="edge">
<title>src/app/layout.tsx&#45;&gt;node_modules/.pnpm</title>
<path fill="none" stroke="#000000" stroke-opacity="0.200000" d="M98.57,-368.39C106.55,-366.52 114.49,-363.11 120,-357 136.25,-338.99 119.28,-325.64 128,-303 166,-204.3 185.51,-180.08 260,-105 288.85,-75.93 329.71,-51.01 355,-37.03"/>
<polygon fill="none" stroke="#000000" stroke-opacity="0.200000" points="356.2,-38.76 360.45,-34.04 354.18,-35.08 356.2,-38.76"/>
</g>
<!-- src/config/metadata&#45;config.tsx -->
<g id="node8" class="node">
<title>src/config/metadata&#45;config.tsx</title>
<g id="a_node8"><a xlink:href="src/config/metadata-config.tsx" xlink:title="metadata&#45;config.tsx">
<path fill="#bbfeff" stroke="black" d="M238,-362C238,-362 142,-362 142,-362 139,-362 136,-359 136,-356 136,-356 136,-350 136,-350 136,-347 139,-344 142,-344 142,-344 238,-344 238,-344 241,-344 244,-347 244,-350 244,-350 244,-356 244,-356 244,-359 241,-362 238,-362"/>
<text text-anchor="start" x="144" y="-350.8" font-family="Helvetica,sans-Serif" font-size="9.00">metadata&#45;config.tsx</text>
</a>
</g>
</g>
<!-- src/app/layout.tsx&#45;&gt;src/config/metadata&#45;config.tsx -->
<g id="edge3" class="edge">
<title>src/app/layout.tsx&#45;&gt;src/config/metadata&#45;config.tsx</title>
<path fill="none" stroke="#000000" stroke-width="2" stroke-opacity="0.200000" d="M98.66,-365.8C108.15,-364.45 119.01,-362.92 129.83,-361.38"/>
<polygon fill="#000000" fill-opacity="0.200000" stroke="#000000" stroke-width="2" stroke-opacity="0.200000" points="130.19,-363.45 135.83,-360.53 129.6,-359.29 130.19,-363.45"/>
</g>
<!-- src/config/viewport&#45;config.tsx -->
<g id="node9" class="node">
<title>src/config/viewport&#45;config.tsx</title>
<g id="a_node9"><a xlink:href="src/config/viewport-config.tsx" xlink:title="viewport&#45;config.tsx">
<path fill="#bbfeff" stroke="black" d="M236,-332C236,-332 144,-332 144,-332 141,-332 138,-329 138,-326 138,-326 138,-320 138,-320 138,-317 141,-314 144,-314 144,-314 236,-314 236,-314 239,-314 242,-317 242,-320 242,-320 242,-326 242,-326 242,-329 239,-332 236,-332"/>
<text text-anchor="start" x="146" y="-320.8" font-family="Helvetica,sans-Serif" font-size="9.00">viewport&#45;config.tsx</text>
</a>
</g>
</g>
<!-- src/app/layout.tsx&#45;&gt;src/config/viewport&#45;config.tsx -->
<g id="edge4" class="edge">
<title>src/app/layout.tsx&#45;&gt;src/config/viewport&#45;config.tsx</title>
<path fill="none" stroke="#000000" stroke-width="2" stroke-opacity="0.200000" d="M98.72,-367.2C106.34,-365.28 114.05,-362.13 120,-357 126.94,-351.02 121.03,-343.95 128,-338 129.4,-336.81 130.88,-335.7 132.42,-334.69"/>
<polygon fill="#000000" fill-opacity="0.200000" stroke="#000000" stroke-width="2" stroke-opacity="0.200000" points="133.74,-336.35 137.89,-331.55 131.65,-332.71 133.74,-336.35"/>
</g>
<!-- src/domains/app&#45;shell/root&#45;layout.tsx -->
<g id="node10" class="node">
<title>src/domains/app&#45;shell/root&#45;layout.tsx</title>
<g id="a_node10"><a xlink:href="src/domains/app-shell/root-layout.tsx" xlink:title="root&#45;layout.tsx">
<path fill="#bbfeff" stroke="black" d="M225,-550C225,-550 155,-550 155,-550 152,-550 149,-547 149,-544 149,-544 149,-538 149,-538 149,-535 152,-532 155,-532 155,-532 225,-532 225,-532 228,-532 231,-535 231,-538 231,-538 231,-544 231,-544 231,-547 228,-550 225,-550"/>
<text text-anchor="start" x="157" y="-538.8" font-family="Helvetica,sans-Serif" font-size="9.00">root&#45;layout.tsx</text>
</a>
</g>
</g>
<!-- src/app/layout.tsx&#45;&gt;src/domains/app&#45;shell/root&#45;layout.tsx -->
<g id="edge5" class="edge">
<title>src/app/layout.tsx&#45;&gt;src/domains/app&#45;shell/root&#45;layout.tsx</title>
<path fill="none" stroke="#000000" stroke-width="2" stroke-opacity="0.200000" d="M98.69,-371.86C106.77,-373.86 114.74,-377.51 120,-384 138.92,-407.35 110.01,-494.93 128,-519 131.97,-524.32 137.35,-528.35 143.28,-531.41"/>
<polygon fill="#000000" fill-opacity="0.200000" stroke="#000000" stroke-width="2" stroke-opacity="0.200000" points="147.98,-535.87 143.39,-531.46 149.72,-532.05 147.98,-535.87"/>
</g>
<!-- src/config/metadata&#45;config.tsx&#45;&gt;node_modules/.pnpm -->
<g id="edge7" class="edge">
<title>src/config/metadata&#45;config.tsx&#45;&gt;node_modules/.pnpm</title>
<path fill="none" stroke="#000000" stroke-opacity="0.200000" d="M244.06,-345.04C247.03,-343.12 249.73,-340.79 252,-338 268.33,-317.89 247.47,-127.67 260,-105 278.71,-71.12 318.6,-48.78 346.8,-36.52"/>
<polygon fill="none" stroke="#000000" stroke-opacity="0.200000" points="347.92,-38.33 352.63,-34.06 346.29,-34.46 347.92,-38.33"/>
</g>
<!-- src/config/viewport&#45;config.tsx&#45;&gt;node_modules/.pnpm -->
<g id="edge8" class="edge">
<title>src/config/viewport&#45;config.tsx&#45;&gt;node_modules/.pnpm</title>
<path fill="none" stroke="#000000" stroke-opacity="0.200000" d="M195.55,-313.83C207.03,-290.28 237.3,-225.43 252,-168 259,-140.66 245.23,-129.05 260,-105 280.43,-71.72 320.5,-49.08 348.24,-36.6"/>
<polygon fill="none" stroke="#000000" stroke-opacity="0.200000" points="349.31,-38.42 353.96,-34.09 347.62,-34.57 349.31,-38.42"/>
</g>
<!-- src/domains/app&#45;shell/globals.css -->
<g id="node11" class="node">
<title>src/domains/app&#45;shell/globals.css</title>
<g id="a_node11"><a xlink:href="src/domains/app-shell/globals.css" xlink:title="globals.css">
<path fill="#ffffcc" stroke="black" d="M405.5,-550C405.5,-550 352.5,-550 352.5,-550 349.5,-550 346.5,-547 346.5,-544 346.5,-544 346.5,-538 346.5,-538 346.5,-535 349.5,-532 352.5,-532 352.5,-532 405.5,-532 405.5,-532 408.5,-532 411.5,-535 411.5,-538 411.5,-538 411.5,-544 411.5,-544 411.5,-547 408.5,-550 405.5,-550"/>
<text text-anchor="start" x="354.5" y="-538.8" font-family="Helvetica,sans-Serif" font-size="9.00">globals.css</text>
</a>
</g>
</g>
<!-- src/domains/app&#45;shell/root&#45;layout.tsx&#45;&gt;src/domains/app&#45;shell/globals.css -->
<g id="edge9" class="edge">
<title>src/domains/app&#45;shell/root&#45;layout.tsx&#45;&gt;src/domains/app&#45;shell/globals.css</title>
<path fill="none" stroke="#000000" stroke-width="2" stroke-opacity="0.200000" d="M231.12,-541C263.41,-541 308.49,-541 340.16,-541"/>
<polygon fill="#000000" fill-opacity="0.200000" stroke="#000000" stroke-width="2" stroke-opacity="0.200000" points="340.31,-543.1 346.31,-541 340.31,-538.9 340.31,-543.1"/>
</g>
<!-- src/vitest&#45;setup.d.ts -->
<g id="node12" class="node">
<title>src/vitest&#45;setup.d.ts</title>
<g id="a_node12"><a xlink:href="src/vitest-setup.d.ts" xlink:title="vitest&#45;setup.d.ts">
<path fill="#ccffcc" stroke="black" d="M107,-343C107,-343 29,-343 29,-343 26,-343 23,-340 23,-337 23,-337 23,-331 23,-331 23,-328 26,-325 29,-325 29,-325 107,-325 107,-325 110,-325 113,-328 113,-331 113,-331 113,-337 113,-337 113,-340 110,-343 107,-343"/>
<text text-anchor="start" x="31" y="-331.8" font-family="Helvetica,sans-Serif" font-size="9.00">vitest&#45;setup.d.ts</text>
</a>
</g>
</g>
</g>
</svg>
