<?xml version="1.0" encoding="UTF-8" standalone="no"?>
<!DOCTYPE svg PUBLIC "-//W3C//DTD SVG 1.1//EN"
 "http://www.w3.org/Graphics/SVG/1.1/DTD/svg11.dtd">
<!-- Generated by graphviz version 2.43.0 (0)
 -->
<!-- Title: dependency&#45;cruiser output Pages: 1 -->
<svg width="238pt" height="241pt"
 viewBox="0.00 0.00 238.00 241.00" xmlns="http://www.w3.org/2000/svg" xmlns:xlink="http://www.w3.org/1999/xlink">
<g id="graph0" class="graph" transform="scale(1 1) rotate(0) translate(4 237)">
<title>dependency&#45;cruiser output</title>
<polygon fill="white" stroke="transparent" points="-4,4 -4,-237 234,-237 234,4 -4,4"/>
<g id="clust1" class="cluster">
<title>cluster_apps</title>
<path fill="#ffffff" stroke="black" stroke-width="2" d="M20,-23C20,-23 103,-23 103,-23 109,-23 115,-29 115,-35 115,-35 115,-93 115,-93 115,-99 109,-105 103,-105 103,-105 20,-105 20,-105 14,-105 8,-99 8,-93 8,-93 8,-35 8,-35 8,-29 14,-23 20,-23"/>
<text text-anchor="middle" x="61.5" y="-93.8" font-family="Helvetica,sans-Serif" font-weight="bold" font-size="9.00">apps</text>
</g>
<g id="clust2" class="cluster">
<title>cluster_packages</title>
<path fill="#ffffff" stroke="black" stroke-width="2" d="M135,-8C135,-8 210,-8 210,-8 216,-8 222,-14 222,-20 222,-20 222,-78 222,-78 222,-84 216,-90 210,-90 210,-90 135,-90 135,-90 129,-90 123,-84 123,-78 123,-78 123,-20 123,-20 123,-14 129,-8 135,-8"/>
<text text-anchor="middle" x="172.5" y="-78.8" font-family="Helvetica,sans-Serif" font-weight="bold" font-size="9.00">packages</text>
</g>
<g id="clust3" class="cluster">
<title>cluster_tools</title>
<path fill="#ffffff" stroke="black" stroke-width="2" d="M22,-113C22,-113 101,-113 101,-113 107,-113 113,-119 113,-125 113,-125 113,-213 113,-213 113,-219 107,-225 101,-225 101,-225 22,-225 22,-225 16,-225 10,-219 10,-213 10,-213 10,-125 10,-125 10,-119 16,-113 22,-113"/>
<text text-anchor="middle" x="61.5" y="-213.8" font-family="Helvetica,sans-Serif" font-weight="bold" font-size="9.00">tools</text>
</g>
<!-- apps/backoffice&#45;client/ -->
<g id="node1" class="node">
<title>apps/backoffice&#45;client/</title>
<g id="a_node1"><a xlink:href="apps/backoffice-client/" xlink:title="no&#45;orphans">
<polygon fill="#ccffcc" stroke="orange" points="107,-79 18,-79 16,-77 16,-61 105,-61 107,-63 107,-79"/>
<polyline fill="none" stroke="orange" points="105,-77 16,-77 "/>
<polyline fill="none" stroke="orange" points="105,-77 105,-61 "/>
<polyline fill="none" stroke="orange" points="105,-77 107,-79 "/>
<text text-anchor="start" x="24" y="-67.8" font-family="Helvetica,sans-Serif" font-size="9.00" fill="orange">backoffice&#45;client</text>
</a>
</g>
</g>
<!-- packages/ui/ -->
<g id="node2" class="node">
<title>packages/ui/</title>
<g id="a_node2"><a xlink:href="packages/ui/" xlink:title="no&#45;orphans">
<polygon fill="#ccffcc" stroke="orange" points="199.5,-64 147.5,-64 145.5,-62 145.5,-46 197.5,-46 199.5,-48 199.5,-64"/>
<polyline fill="none" stroke="orange" points="197.5,-62 145.5,-62 "/>
<polyline fill="none" stroke="orange" points="197.5,-62 197.5,-46 "/>
<polyline fill="none" stroke="orange" points="197.5,-62 199.5,-64 "/>
<text text-anchor="start" x="168" y="-52.8" font-family="Helvetica,sans-Serif" font-size="9.00" fill="orange">ui</text>
</a>
</g>
</g>
<!-- apps/backoffice&#45;client/&#45;&gt;packages/ui/ -->
<g id="edge1" class="edge">
<title>apps/backoffice&#45;client/&#45;&gt;packages/ui/</title>
<path fill="none" stroke="#000000" stroke-width="2" stroke-opacity="0.200000" d="M107.15,-63.86C117.86,-62.38 129.1,-60.84 139.13,-59.45"/>
<polygon fill="#000000" fill-opacity="0.200000" stroke="#000000" stroke-width="2" stroke-opacity="0.200000" points="139.55,-61.52 145.2,-58.62 138.97,-57.36 139.55,-61.52"/>
</g>
<!-- apps/game&#45;client/ -->
<g id="node3" class="node">
<title>apps/game&#45;client/</title>
<g id="a_node3"><a xlink:href="apps/game-client/" xlink:title="no&#45;orphans">
<polygon fill="#ccffcc" stroke="orange" points="96.5,-49 28.5,-49 26.5,-47 26.5,-31 94.5,-31 96.5,-33 96.5,-49"/>
<polyline fill="none" stroke="orange" points="94.5,-47 26.5,-47 "/>
<polyline fill="none" stroke="orange" points="94.5,-47 94.5,-31 "/>
<polyline fill="none" stroke="orange" points="94.5,-47 96.5,-49 "/>
<text text-anchor="start" x="34.5" y="-37.8" font-family="Helvetica,sans-Serif" font-size="9.00" fill="orange">game&#45;client</text>
</a>
</g>
</g>
<!-- apps/game&#45;client/&#45;&gt;packages/ui/ -->
<g id="edge2" class="edge">
<title>apps/game&#45;client/&#45;&gt;packages/ui/</title>
<path fill="none" stroke="#000000" stroke-width="2" stroke-opacity="0.200000" d="M96.69,-44.7C110.33,-46.58 125.96,-48.73 139.39,-50.58"/>
<polygon fill="#000000" fill-opacity="0.200000" stroke="#000000" stroke-width="2" stroke-opacity="0.200000" points="139.16,-52.67 145.39,-51.41 139.73,-48.51 139.16,-52.67"/>
</g>
<!-- packages/tailwind&#45;config/ -->
<g id="node4" class="node">
<title>packages/tailwind&#45;config/</title>
<g id="a_node4"><a xlink:href="packages/tailwind-config/" xlink:title="no&#45;orphans">
<polygon fill="#ccffcc" stroke="orange" points="214,-34 133,-34 131,-32 131,-16 212,-16 214,-18 214,-34"/>
<polyline fill="none" stroke="orange" points="212,-32 131,-32 "/>
<polyline fill="none" stroke="orange" points="212,-32 212,-16 "/>
<polyline fill="none" stroke="orange" points="212,-32 214,-34 "/>
<text text-anchor="start" x="139" y="-22.8" font-family="Helvetica,sans-Serif" font-size="9.00" fill="orange">tailwind&#45;config</text>
</a>
</g>
</g>
<!-- tools/e2e/ -->
<g id="node5" class="node">
<title>tools/e2e/</title>
<g id="a_node5"><a xlink:href="tools/e2e/" xlink:title="no&#45;orphans">
<polygon fill="#ffffcc" stroke="orange" points="88.5,-199 36.5,-199 34.5,-197 34.5,-181 86.5,-181 88.5,-183 88.5,-199"/>
<polyline fill="none" stroke="orange" points="86.5,-197 34.5,-197 "/>
<polyline fill="none" stroke="orange" points="86.5,-197 86.5,-181 "/>
<polyline fill="none" stroke="orange" points="86.5,-197 88.5,-199 "/>
<text text-anchor="start" x="53" y="-187.8" font-family="Helvetica,sans-Serif" font-size="9.00" fill="orange">e2e</text>
</a>
</g>
</g>
<!-- tools/storybook/ -->
<g id="node6" class="node">
<title>tools/storybook/</title>
<g id="a_node6"><a xlink:href="tools/storybook/" xlink:title="no&#45;orphans">
<polygon fill="#ffffcc" stroke="orange" points="92,-169 33,-169 31,-167 31,-151 90,-151 92,-153 92,-169"/>
<polyline fill="none" stroke="orange" points="90,-167 31,-167 "/>
<polyline fill="none" stroke="orange" points="90,-167 90,-151 "/>
<polyline fill="none" stroke="orange" points="90,-167 92,-169 "/>
<text text-anchor="start" x="39" y="-157.8" font-family="Helvetica,sans-Serif" font-size="9.00" fill="orange">storybook</text>
</a>
</g>
</g>
<!-- tools/web&#45;docs&#45;client/ -->
<g id="node7" class="node">
<title>tools/web&#45;docs&#45;client/</title>
<g id="a_node7"><a xlink:href="tools/web-docs-client/" xlink:title="no&#45;orphans">
<polygon fill="#ffffcc" stroke="orange" points="105,-139 20,-139 18,-137 18,-121 103,-121 105,-123 105,-139"/>
<polyline fill="none" stroke="orange" points="103,-137 18,-137 "/>
<polyline fill="none" stroke="orange" points="103,-137 103,-121 "/>
<polyline fill="none" stroke="orange" points="103,-137 105,-139 "/>
<text text-anchor="start" x="26" y="-127.8" font-family="Helvetica,sans-Serif" font-size="9.00" fill="orange">web&#45;docs&#45;client</text>
</a>
</g>
</g>
</g>
</svg>
