<?xml version="1.0" encoding="UTF-8" standalone="no"?>
<!DOCTYPE svg PUBLIC "-//W3C//DTD SVG 1.1//EN"
 "http://www.w3.org/Graphics/SVG/1.1/DTD/svg11.dtd">
<!-- Generated by graphviz version 2.43.0 (0)
 -->
<!-- Title: dependency&#45;cruiser output Pages: 1 -->
<svg width="514pt" height="584pt"
 viewBox="0.00 0.00 514.00 584.00" xmlns="http://www.w3.org/2000/svg" xmlns:xlink="http://www.w3.org/1999/xlink">
<g id="graph0" class="graph" transform="scale(1 1) rotate(0) translate(4 580)">
<title>dependency&#45;cruiser output</title>
<polygon fill="white" stroke="transparent" points="-4,4 -4,-580 510,-580 510,4 -4,4"/>
<g id="clust1" class="cluster">
<title>cluster_..</title>
<path fill="#ffffff" stroke="black" stroke-width="2" d="M272,-8C272,-8 486,-8 486,-8 492,-8 498,-14 498,-20 498,-20 498,-218 498,-218 498,-224 492,-230 486,-230 486,-230 272,-230 272,-230 266,-230 260,-224 260,-218 260,-218 260,-20 260,-20 260,-14 266,-8 272,-8"/>
<text text-anchor="middle" x="379" y="-218.8" font-family="Helvetica,sans-Serif" font-weight="bold" font-size="9.00">..</text>
</g>
<g id="clust2" class="cluster">
<title>cluster_../..</title>
<path fill="#ffffff" stroke="black" stroke-width="2" d="M280,-16C280,-16 478,-16 478,-16 484,-16 490,-22 490,-28 490,-28 490,-192 490,-192 490,-198 484,-204 478,-204 478,-204 280,-204 280,-204 274,-204 268,-198 268,-192 268,-192 268,-28 268,-28 268,-22 274,-16 280,-16"/>
<text text-anchor="middle" x="379" y="-192.8" font-family="Helvetica,sans-Serif" font-weight="bold" font-size="9.00">..</text>
</g>
<g id="clust3" class="cluster">
<title>cluster_../../packages</title>
<path fill="#ffffff" stroke="black" stroke-width="2" d="M288,-24C288,-24 470,-24 470,-24 476,-24 482,-30 482,-36 482,-36 482,-166 482,-166 482,-172 476,-178 470,-178 470,-178 288,-178 288,-178 282,-178 276,-172 276,-166 276,-166 276,-36 276,-36 276,-30 282,-24 288,-24"/>
<text text-anchor="middle" x="379" y="-166.8" font-family="Helvetica,sans-Serif" font-weight="bold" font-size="9.00">packages</text>
</g>
<g id="clust4" class="cluster">
<title>cluster_../../packages/ui</title>
<path fill="#ffffff" stroke="black" stroke-width="2" d="M296,-32C296,-32 462,-32 462,-32 468,-32 474,-38 474,-44 474,-44 474,-140 474,-140 474,-146 468,-152 462,-152 462,-152 296,-152 296,-152 290,-152 284,-146 284,-140 284,-140 284,-44 284,-44 284,-38 290,-32 296,-32"/>
<text text-anchor="middle" x="379" y="-140.8" font-family="Helvetica,sans-Serif" font-weight="bold" font-size="9.00">ui</text>
</g>
<g id="clust5" class="cluster">
<title>cluster_../../packages/ui/src</title>
<path fill="#ffffff" stroke="black" stroke-width="2" d="M304,-40C304,-40 454,-40 454,-40 460,-40 466,-46 466,-52 466,-52 466,-114 466,-114 466,-120 460,-126 454,-126 454,-126 304,-126 304,-126 298,-126 292,-120 292,-114 292,-114 292,-52 292,-52 292,-46 298,-40 304,-40"/>
<text text-anchor="middle" x="379" y="-114.8" font-family="Helvetica,sans-Serif" font-weight="bold" font-size="9.00">src</text>
</g>
<g id="clust6" class="cluster">
<title>cluster_../../packages/ui/src/components</title>
<path fill="#ffffff" stroke="black" stroke-width="2" d="M312,-48C312,-48 446,-48 446,-48 452,-48 458,-54 458,-60 458,-60 458,-88 458,-88 458,-94 452,-100 446,-100 446,-100 312,-100 312,-100 306,-100 300,-94 300,-88 300,-88 300,-60 300,-60 300,-54 306,-48 312,-48"/>
<text text-anchor="middle" x="379" y="-88.8" font-family="Helvetica,sans-Serif" font-weight="bold" font-size="9.00">components</text>
</g>
<g id="clust7" class="cluster">
<title>cluster_src</title>
<path fill="#ffffff" stroke="black" stroke-width="2" d="M20,-238C20,-238 423.5,-238 423.5,-238 429.5,-238 435.5,-244 435.5,-250 435.5,-250 435.5,-556 435.5,-556 435.5,-562 429.5,-568 423.5,-568 423.5,-568 20,-568 20,-568 14,-568 8,-562 8,-556 8,-556 8,-250 8,-250 8,-244 14,-238 20,-238"/>
<text text-anchor="middle" x="221.75" y="-556.8" font-family="Helvetica,sans-Serif" font-weight="bold" font-size="9.00">src</text>
</g>
<g id="clust8" class="cluster">
<title>cluster_src/app</title>
<path fill="#ffffff" stroke="black" stroke-width="2" d="M28,-272C28,-272 108,-272 108,-272 114,-272 120,-278 120,-284 120,-284 120,-432 120,-432 120,-438 114,-444 108,-444 108,-444 28,-444 28,-444 22,-444 16,-438 16,-432 16,-432 16,-284 16,-284 16,-278 22,-272 28,-272"/>
<text text-anchor="middle" x="68" y="-432.8" font-family="Helvetica,sans-Serif" font-weight="bold" font-size="9.00">app</text>
</g>
<g id="clust9" class="cluster">
<title>cluster_src/app/en</title>
<path fill="#ffffff" stroke="black" stroke-width="2" d="M36,-280C36,-280 100,-280 100,-280 106,-280 112,-286 112,-292 112,-292 112,-380 112,-380 112,-386 106,-392 100,-392 100,-392 36,-392 36,-392 30,-392 24,-386 24,-380 24,-380 24,-292 24,-292 24,-286 30,-280 36,-280"/>
<text text-anchor="middle" x="68" y="-380.8" font-family="Helvetica,sans-Serif" font-weight="bold" font-size="9.00">en</text>
</g>
<g id="clust10" class="cluster">
<title>cluster_src/app/en/debug</title>
<path fill="#ffffff" stroke="black" stroke-width="2" d="M44,-314C44,-314 92,-314 92,-314 98,-314 104,-320 104,-326 104,-326 104,-354 104,-354 104,-360 98,-366 92,-366 92,-366 44,-366 44,-366 38,-366 32,-360 32,-354 32,-354 32,-326 32,-326 32,-320 38,-314 44,-314"/>
<text text-anchor="middle" x="68" y="-354.8" font-family="Helvetica,sans-Serif" font-weight="bold" font-size="9.00">debug</text>
</g>
<g id="clust11" class="cluster">
<title>cluster_src/config</title>
<path fill="#ffffff" stroke="black" stroke-width="2" d="M140,-460C140,-460 240,-460 240,-460 246,-460 252,-466 252,-472 252,-472 252,-530 252,-530 252,-536 246,-542 240,-542 240,-542 140,-542 140,-542 134,-542 128,-536 128,-530 128,-530 128,-472 128,-472 128,-466 134,-460 140,-460"/>
<text text-anchor="middle" x="190" y="-530.8" font-family="Helvetica,sans-Serif" font-weight="bold" font-size="9.00">config</text>
</g>
<g id="clust12" class="cluster">
<title>cluster_src/domains</title>
<path fill="#ffffff" stroke="black" stroke-width="2" d="M142,-246C142,-246 415.5,-246 415.5,-246 421.5,-246 427.5,-252 427.5,-258 427.5,-258 427.5,-440 427.5,-440 427.5,-446 421.5,-452 415.5,-452 415.5,-452 142,-452 142,-452 136,-452 130,-446 130,-440 130,-440 130,-258 130,-258 130,-252 136,-246 142,-246"/>
<text text-anchor="middle" x="278.75" y="-440.8" font-family="Helvetica,sans-Serif" font-weight="bold" font-size="9.00">domains</text>
</g>
<g id="clust13" class="cluster">
<title>cluster_src/domains/app&#45;shell</title>
<path fill="#ffffff" stroke="black" stroke-width="2" d="M153,-374C153,-374 407.5,-374 407.5,-374 413.5,-374 419.5,-380 419.5,-386 419.5,-386 419.5,-414 419.5,-414 419.5,-420 413.5,-426 407.5,-426 407.5,-426 153,-426 153,-426 147,-426 141,-420 141,-414 141,-414 141,-386 141,-386 141,-380 147,-374 153,-374"/>
<text text-anchor="middle" x="280.25" y="-414.8" font-family="Helvetica,sans-Serif" font-weight="bold" font-size="9.00">app&#45;shell</text>
</g>
<g id="clust14" class="cluster">
<title>cluster_src/domains/debug</title>
<path fill="#ffffff" stroke="black" stroke-width="2" d="M150,-314C150,-314 230,-314 230,-314 236,-314 242,-320 242,-326 242,-326 242,-354 242,-354 242,-360 236,-366 230,-366 230,-366 150,-366 150,-366 144,-366 138,-360 138,-354 138,-354 138,-326 138,-326 138,-320 144,-314 150,-314"/>
<text text-anchor="middle" x="190" y="-354.8" font-family="Helvetica,sans-Serif" font-weight="bold" font-size="9.00">debug</text>
</g>
<g id="clust15" class="cluster">
<title>cluster_src/domains/home</title>
<path fill="#ffffff" stroke="black" stroke-width="2" d="M152,-254C152,-254 228,-254 228,-254 234,-254 240,-260 240,-266 240,-266 240,-294 240,-294 240,-300 234,-306 228,-306 228,-306 152,-306 152,-306 146,-306 140,-300 140,-294 140,-294 140,-266 140,-266 140,-260 146,-254 152,-254"/>
<text text-anchor="middle" x="190" y="-294.8" font-family="Helvetica,sans-Serif" font-weight="bold" font-size="9.00">home</text>
</g>
<!-- ../../packages/ui/src/components/DeploymentDebugPanel.tsx -->
<g id="node1" class="node">
<title>../../packages/ui/src/components/DeploymentDebugPanel.tsx</title>
<g id="a_node1"><a xlink:href="../../packages/ui/src/components/DeploymentDebugPanel.tsx" xlink:title="DeploymentDebugPanel.tsx">
<polygon fill="#bbfeff" stroke="black" points="450,-74 448.5,-76 438,-76 436.5,-74 308,-74 308,-56 450,-56 450,-74"/>
<text text-anchor="start" x="316" y="-62.8" font-family="Helvetica,sans-Serif" font-size="9.00">DeploymentDebugPanel.tsx</text>
</a>
</g>
</g>
<!-- src/app/en/debug/page.tsx -->
<g id="node2" class="node">
<title>src/app/en/debug/page.tsx</title>
<g id="a_node2"><a xlink:href="src/app/en/debug/page.tsx" xlink:title="page.tsx">
<path fill="#bbfeff" stroke="black" d="M90,-340C90,-340 46,-340 46,-340 43,-340 40,-337 40,-334 40,-334 40,-328 40,-328 40,-325 43,-322 46,-322 46,-322 90,-322 90,-322 93,-322 96,-325 96,-328 96,-328 96,-334 96,-334 96,-337 93,-340 90,-340"/>
<text text-anchor="start" x="48" y="-328.8" font-family="Helvetica,sans-Serif" font-size="9.00">page.tsx</text>
</a>
</g>
</g>
<!-- src/domains/debug/debug&#45;page.tsx -->
<g id="node3" class="node">
<title>src/domains/debug/debug&#45;page.tsx</title>
<g id="a_node3"><a xlink:href="src/domains/debug/debug-page.tsx" xlink:title="debug&#45;page.tsx">
<path fill="#bbfeff" stroke="black" d="M228,-340C228,-340 152,-340 152,-340 149,-340 146,-337 146,-334 146,-334 146,-328 146,-328 146,-325 149,-322 152,-322 152,-322 228,-322 228,-322 231,-322 234,-325 234,-328 234,-328 234,-334 234,-334 234,-337 231,-340 228,-340"/>
<text text-anchor="start" x="154" y="-328.8" font-family="Helvetica,sans-Serif" font-size="9.00">debug&#45;page.tsx</text>
</a>
</g>
</g>
<!-- src/app/en/debug/page.tsx&#45;&gt;src/domains/debug/debug&#45;page.tsx -->
<g id="edge1" class="edge">
<title>src/app/en/debug/page.tsx&#45;&gt;src/domains/debug/debug&#45;page.tsx</title>
<path fill="none" stroke="#000000" stroke-width="2" stroke-opacity="0.200000" d="M96.23,-331C109.06,-331 124.77,-331 139.59,-331"/>
<polygon fill="#000000" fill-opacity="0.200000" stroke="#000000" stroke-width="2" stroke-opacity="0.200000" points="145.87,-333.1 139.87,-331 145.87,-328.9 145.87,-333.1"/>
</g>
<!-- src/domains/debug/debug&#45;page.tsx&#45;&gt;../../packages/ui/src/components/DeploymentDebugPanel.tsx -->
<g id="edge7" class="edge">
<title>src/domains/debug/debug&#45;page.tsx&#45;&gt;../../packages/ui/src/components/DeploymentDebugPanel.tsx</title>
<path fill="none" stroke="#000000" stroke-width="2" stroke-opacity="0.200000" d="M229.84,-321.91C237.79,-318.76 245.65,-314.57 252,-309 327,-243.21 363.58,-121.94 374.43,-79.85"/>
<polygon fill="#000000" fill-opacity="0.200000" stroke="#000000" stroke-width="2" stroke-opacity="0.200000" points="376.47,-80.35 375.9,-74.01 372.4,-79.32 376.47,-80.35"/>
</g>
<!-- src/app/en/page.tsx -->
<g id="node4" class="node">
<title>src/app/en/page.tsx</title>
<g id="a_node4"><a xlink:href="src/app/en/page.tsx" xlink:title="page.tsx">
<path fill="#bbfeff" stroke="black" d="M90,-306C90,-306 46,-306 46,-306 43,-306 40,-303 40,-300 40,-300 40,-294 40,-294 40,-291 43,-288 46,-288 46,-288 90,-288 90,-288 93,-288 96,-291 96,-294 96,-294 96,-300 96,-300 96,-303 93,-306 90,-306"/>
<text text-anchor="start" x="48" y="-294.8" font-family="Helvetica,sans-Serif" font-size="9.00">page.tsx</text>
</a>
</g>
</g>
<!-- src/domains/home/home&#45;page.tsx -->
<g id="node5" class="node">
<title>src/domains/home/home&#45;page.tsx</title>
<g id="a_node5"><a xlink:href="src/domains/home/home-page.tsx" xlink:title="home&#45;page.tsx">
<path fill="#bbfeff" stroke="black" d="M226,-280C226,-280 154,-280 154,-280 151,-280 148,-277 148,-274 148,-274 148,-268 148,-268 148,-265 151,-262 154,-262 154,-262 226,-262 226,-262 229,-262 232,-265 232,-268 232,-268 232,-274 232,-274 232,-277 229,-280 226,-280"/>
<text text-anchor="start" x="156" y="-268.8" font-family="Helvetica,sans-Serif" font-size="9.00">home&#45;page.tsx</text>
</a>
</g>
</g>
<!-- src/app/en/page.tsx&#45;&gt;src/domains/home/home&#45;page.tsx -->
<g id="edge2" class="edge">
<title>src/app/en/page.tsx&#45;&gt;src/domains/home/home&#45;page.tsx</title>
<path fill="none" stroke="#000000" stroke-width="2" stroke-opacity="0.200000" d="M96.23,-291.1C109.66,-288.19 126.25,-284.6 141.67,-281.25"/>
<polygon fill="#000000" fill-opacity="0.200000" stroke="#000000" stroke-width="2" stroke-opacity="0.200000" points="148.18,-281.99 141.88,-281.21 147.29,-277.89 148.18,-281.99"/>
</g>
<!-- src/app/layout.tsx -->
<g id="node6" class="node">
<title>src/app/layout.tsx</title>
<g id="a_node6"><a xlink:href="src/app/layout.tsx" xlink:title="layout.tsx">
<path fill="#bbfeff" stroke="black" d="M92.5,-418C92.5,-418 43.5,-418 43.5,-418 40.5,-418 37.5,-415 37.5,-412 37.5,-412 37.5,-406 37.5,-406 37.5,-403 40.5,-400 43.5,-400 43.5,-400 92.5,-400 92.5,-400 95.5,-400 98.5,-403 98.5,-406 98.5,-406 98.5,-412 98.5,-412 98.5,-415 95.5,-418 92.5,-418"/>
<text text-anchor="start" x="45.5" y="-406.8" font-family="Helvetica,sans-Serif" font-size="9.00">layout.tsx</text>
</a>
</g>
</g>
<!-- src/config/metadata&#45;config.tsx -->
<g id="node7" class="node">
<title>src/config/metadata&#45;config.tsx</title>
<g id="a_node7"><a xlink:href="src/config/metadata-config.tsx" xlink:title="metadata&#45;config.tsx">
<path fill="#bbfeff" stroke="black" d="M238,-516C238,-516 142,-516 142,-516 139,-516 136,-513 136,-510 136,-510 136,-504 136,-504 136,-501 139,-498 142,-498 142,-498 238,-498 238,-498 241,-498 244,-501 244,-504 244,-504 244,-510 244,-510 244,-513 241,-516 238,-516"/>
<text text-anchor="start" x="144" y="-504.8" font-family="Helvetica,sans-Serif" font-size="9.00">metadata&#45;config.tsx</text>
</a>
</g>
</g>
<!-- src/app/layout.tsx&#45;&gt;src/config/metadata&#45;config.tsx -->
<g id="edge3" class="edge">
<title>src/app/layout.tsx&#45;&gt;src/config/metadata&#45;config.tsx</title>
<path fill="none" stroke="#000000" stroke-width="2" stroke-opacity="0.200000" d="M72.83,-418.12C80.58,-435.38 99.78,-472.82 128,-492 129.71,-493.16 131.51,-494.24 133.36,-495.23"/>
<polygon fill="#000000" fill-opacity="0.200000" stroke="#000000" stroke-width="2" stroke-opacity="0.200000" points="132.77,-497.27 139.09,-497.96 134.58,-493.48 132.77,-497.27"/>
</g>
<!-- src/config/viewport&#45;config.tsx -->
<g id="node8" class="node">
<title>src/config/viewport&#45;config.tsx</title>
<g id="a_node8"><a xlink:href="src/config/viewport-config.tsx" xlink:title="viewport&#45;config.tsx">
<path fill="#bbfeff" stroke="black" d="M236,-486C236,-486 144,-486 144,-486 141,-486 138,-483 138,-480 138,-480 138,-474 138,-474 138,-471 141,-468 144,-468 144,-468 236,-468 236,-468 239,-468 242,-471 242,-474 242,-474 242,-480 242,-480 242,-483 239,-486 236,-486"/>
<text text-anchor="start" x="146" y="-474.8" font-family="Helvetica,sans-Serif" font-size="9.00">viewport&#45;config.tsx</text>
</a>
</g>
</g>
<!-- src/app/layout.tsx&#45;&gt;src/config/viewport&#45;config.tsx -->
<g id="edge4" class="edge">
<title>src/app/layout.tsx&#45;&gt;src/config/viewport&#45;config.tsx</title>
<path fill="none" stroke="#000000" stroke-width="2" stroke-opacity="0.200000" d="M85.18,-418.17C106.51,-430.25 144.06,-451.53 167.68,-464.92"/>
<polygon fill="#000000" fill-opacity="0.200000" stroke="#000000" stroke-width="2" stroke-opacity="0.200000" points="166.82,-466.84 173.07,-467.97 168.89,-463.19 166.82,-466.84"/>
</g>
<!-- src/domains/app&#45;shell/root&#45;layout.tsx -->
<g id="node9" class="node">
<title>src/domains/app&#45;shell/root&#45;layout.tsx</title>
<g id="a_node9"><a xlink:href="src/domains/app-shell/root-layout.tsx" xlink:title="root&#45;layout.tsx">
<path fill="#bbfeff" stroke="black" d="M225,-400C225,-400 155,-400 155,-400 152,-400 149,-397 149,-394 149,-394 149,-388 149,-388 149,-385 152,-382 155,-382 155,-382 225,-382 225,-382 228,-382 231,-385 231,-388 231,-388 231,-394 231,-394 231,-397 228,-400 225,-400"/>
<text text-anchor="start" x="157" y="-388.8" font-family="Helvetica,sans-Serif" font-size="9.00">root&#45;layout.tsx</text>
</a>
</g>
</g>
<!-- src/app/layout.tsx&#45;&gt;src/domains/app&#45;shell/root&#45;layout.tsx -->
<g id="edge5" class="edge">
<title>src/app/layout.tsx&#45;&gt;src/domains/app&#45;shell/root&#45;layout.tsx</title>
<path fill="none" stroke="#000000" stroke-width="2" stroke-opacity="0.200000" d="M98.66,-404.55C111.9,-402.56 127.82,-400.18 142.57,-397.96"/>
<polygon fill="#000000" fill-opacity="0.200000" stroke="#000000" stroke-width="2" stroke-opacity="0.200000" points="149.13,-399.1 142.88,-397.92 148.5,-394.95 149.13,-399.1"/>
</g>
<!-- src/domains/app&#45;shell/globals.css -->
<g id="node10" class="node">
<title>src/domains/app&#45;shell/globals.css</title>
<g id="a_node10"><a xlink:href="src/domains/app-shell/globals.css" xlink:title="globals.css">
<path fill="#ffffcc" stroke="black" d="M405.5,-400C405.5,-400 352.5,-400 352.5,-400 349.5,-400 346.5,-397 346.5,-394 346.5,-394 346.5,-388 346.5,-388 346.5,-385 349.5,-382 352.5,-382 352.5,-382 405.5,-382 405.5,-382 408.5,-382 411.5,-385 411.5,-388 411.5,-388 411.5,-394 411.5,-394 411.5,-397 408.5,-400 405.5,-400"/>
<text text-anchor="start" x="354.5" y="-388.8" font-family="Helvetica,sans-Serif" font-size="9.00">globals.css</text>
</a>
</g>
</g>
<!-- src/domains/app&#45;shell/root&#45;layout.tsx&#45;&gt;src/domains/app&#45;shell/globals.css -->
<g id="edge6" class="edge">
<title>src/domains/app&#45;shell/root&#45;layout.tsx&#45;&gt;src/domains/app&#45;shell/globals.css</title>
<path fill="none" stroke="#000000" stroke-width="2" stroke-opacity="0.200000" d="M231.12,-391C263.41,-391 308.49,-391 340.16,-391"/>
<polygon fill="#000000" fill-opacity="0.200000" stroke="#000000" stroke-width="2" stroke-opacity="0.200000" points="340.31,-393.1 346.31,-391 340.31,-388.9 340.31,-393.1"/>
</g>
</g>
</svg>
