<?xml version="1.0" encoding="UTF-8" standalone="no"?>
<!DOCTYPE svg PUBLIC "-//W3C//DTD SVG 1.1//EN"
 "http://www.w3.org/Graphics/SVG/1.1/DTD/svg11.dtd">
<!-- Generated by graphviz version 2.43.0 (0)
 -->
<!-- Title: dependency&#45;cruiser output Pages: 1 -->
<svg width="449pt" height="482pt"
 viewBox="0.00 0.00 449.00 482.00" xmlns="http://www.w3.org/2000/svg" xmlns:xlink="http://www.w3.org/1999/xlink">
<g id="graph0" class="graph" transform="scale(1 1) rotate(0) translate(4 478)">
<title>dependency&#45;cruiser output</title>
<polygon fill="white" stroke="transparent" points="-4,4 -4,-478 445,-478 445,4 -4,4"/>
<g id="clust1" class="cluster">
<title>cluster_@kartuli</title>
<path fill="#ffffff" stroke="black" stroke-width="2" d="M272,-8C272,-8 421,-8 421,-8 427,-8 433,-14 433,-20 433,-20 433,-116 433,-116 433,-122 427,-128 421,-128 421,-128 272,-128 272,-128 266,-128 260,-122 260,-116 260,-116 260,-20 260,-20 260,-14 266,-8 272,-8"/>
<text text-anchor="middle" x="346.5" y="-116.8" font-family="Helvetica,sans-Serif" font-weight="bold" font-size="9.00">@kartuli</text>
</g>
<g id="clust2" class="cluster">
<title>cluster_@kartuli/ui</title>
<path fill="#ffffff" stroke="black" stroke-width="2" d="M280,-16C280,-16 413,-16 413,-16 419,-16 425,-22 425,-28 425,-28 425,-90 425,-90 425,-96 419,-102 413,-102 413,-102 280,-102 280,-102 274,-102 268,-96 268,-90 268,-90 268,-28 268,-28 268,-22 274,-16 280,-16"/>
<text text-anchor="middle" x="346.5" y="-90.8" font-family="Helvetica,sans-Serif" font-weight="bold" font-size="9.00">ui</text>
</g>
<g id="clust3" class="cluster">
<title>cluster_@kartuli/ui/components</title>
<path fill="#ffffff" stroke="black" stroke-width="2" d="M288,-24C288,-24 405,-24 405,-24 411,-24 417,-30 417,-36 417,-36 417,-64 417,-64 417,-70 411,-76 405,-76 405,-76 288,-76 288,-76 282,-76 276,-70 276,-64 276,-64 276,-36 276,-36 276,-30 282,-24 288,-24"/>
<text text-anchor="middle" x="346.5" y="-64.8" font-family="Helvetica,sans-Serif" font-weight="bold" font-size="9.00">components</text>
</g>
<g id="clust4" class="cluster">
<title>cluster_src</title>
<path fill="#ffffff" stroke="black" stroke-width="2" d="M20,-136C20,-136 391,-136 391,-136 397,-136 403,-142 403,-148 403,-148 403,-454 403,-454 403,-460 397,-466 391,-466 391,-466 20,-466 20,-466 14,-466 8,-460 8,-454 8,-454 8,-148 8,-148 8,-142 14,-136 20,-136"/>
<text text-anchor="middle" x="205.5" y="-454.8" font-family="Helvetica,sans-Serif" font-weight="bold" font-size="9.00">src</text>
</g>
<g id="clust5" class="cluster">
<title>cluster_src/app</title>
<path fill="#ffffff" stroke="black" stroke-width="2" d="M28,-170C28,-170 108,-170 108,-170 114,-170 120,-176 120,-182 120,-182 120,-330 120,-330 120,-336 114,-342 108,-342 108,-342 28,-342 28,-342 22,-342 16,-336 16,-330 16,-330 16,-182 16,-182 16,-176 22,-170 28,-170"/>
<text text-anchor="middle" x="68" y="-330.8" font-family="Helvetica,sans-Serif" font-weight="bold" font-size="9.00">app</text>
</g>
<g id="clust6" class="cluster">
<title>cluster_src/app/en</title>
<path fill="#ffffff" stroke="black" stroke-width="2" d="M36,-178C36,-178 100,-178 100,-178 106,-178 112,-184 112,-190 112,-190 112,-278 112,-278 112,-284 106,-290 100,-290 100,-290 36,-290 36,-290 30,-290 24,-284 24,-278 24,-278 24,-190 24,-190 24,-184 30,-178 36,-178"/>
<text text-anchor="middle" x="68" y="-278.8" font-family="Helvetica,sans-Serif" font-weight="bold" font-size="9.00">en</text>
</g>
<g id="clust7" class="cluster">
<title>cluster_src/app/en/debug</title>
<path fill="#ffffff" stroke="black" stroke-width="2" d="M44,-212C44,-212 92,-212 92,-212 98,-212 104,-218 104,-224 104,-224 104,-252 104,-252 104,-258 98,-264 92,-264 92,-264 44,-264 44,-264 38,-264 32,-258 32,-252 32,-252 32,-224 32,-224 32,-218 38,-212 44,-212"/>
<text text-anchor="middle" x="68" y="-252.8" font-family="Helvetica,sans-Serif" font-weight="bold" font-size="9.00">debug</text>
</g>
<g id="clust8" class="cluster">
<title>cluster_src/config</title>
<path fill="#ffffff" stroke="black" stroke-width="2" d="M140,-358C140,-358 240,-358 240,-358 246,-358 252,-364 252,-370 252,-370 252,-428 252,-428 252,-434 246,-440 240,-440 240,-440 140,-440 140,-440 134,-440 128,-434 128,-428 128,-428 128,-370 128,-370 128,-364 134,-358 140,-358"/>
<text text-anchor="middle" x="190" y="-428.8" font-family="Helvetica,sans-Serif" font-weight="bold" font-size="9.00">config</text>
</g>
<g id="clust9" class="cluster">
<title>cluster_src/domains</title>
<path fill="#ffffff" stroke="black" stroke-width="2" d="M142,-144C142,-144 383,-144 383,-144 389,-144 395,-150 395,-156 395,-156 395,-338 395,-338 395,-344 389,-350 383,-350 383,-350 142,-350 142,-350 136,-350 130,-344 130,-338 130,-338 130,-156 130,-156 130,-150 136,-144 142,-144"/>
<text text-anchor="middle" x="262.5" y="-338.8" font-family="Helvetica,sans-Serif" font-weight="bold" font-size="9.00">domains</text>
</g>
<g id="clust10" class="cluster">
<title>cluster_src/domains/app&#45;shell</title>
<path fill="#ffffff" stroke="black" stroke-width="2" d="M153,-272C153,-272 375,-272 375,-272 381,-272 387,-278 387,-284 387,-284 387,-312 387,-312 387,-318 381,-324 375,-324 375,-324 153,-324 153,-324 147,-324 141,-318 141,-312 141,-312 141,-284 141,-284 141,-278 147,-272 153,-272"/>
<text text-anchor="middle" x="264" y="-312.8" font-family="Helvetica,sans-Serif" font-weight="bold" font-size="9.00">app&#45;shell</text>
</g>
<g id="clust11" class="cluster">
<title>cluster_src/domains/debug</title>
<path fill="#ffffff" stroke="black" stroke-width="2" d="M150,-212C150,-212 230,-212 230,-212 236,-212 242,-218 242,-224 242,-224 242,-252 242,-252 242,-258 236,-264 230,-264 230,-264 150,-264 150,-264 144,-264 138,-258 138,-252 138,-252 138,-224 138,-224 138,-218 144,-212 150,-212"/>
<text text-anchor="middle" x="190" y="-252.8" font-family="Helvetica,sans-Serif" font-weight="bold" font-size="9.00">debug</text>
</g>
<g id="clust12" class="cluster">
<title>cluster_src/domains/home</title>
<path fill="#ffffff" stroke="black" stroke-width="2" d="M152,-152C152,-152 228,-152 228,-152 234,-152 240,-158 240,-164 240,-164 240,-192 240,-192 240,-198 234,-204 228,-204 228,-204 152,-204 152,-204 146,-204 140,-198 140,-192 140,-192 140,-164 140,-164 140,-158 146,-152 152,-152"/>
<text text-anchor="middle" x="190" y="-192.8" font-family="Helvetica,sans-Serif" font-weight="bold" font-size="9.00">home</text>
</g>
<!-- @kartuli/ui/components/DeploymentDebugPanel -->
<g id="node1" class="node">
<title>@kartuli/ui/components/DeploymentDebugPanel</title>
<g id="a_node1"><a xlink:title="DeploymentDebugPanel">
<path fill="#ffffcc" stroke="black" d="M403,-50C403,-50 290,-50 290,-50 287,-50 284,-47 284,-44 284,-44 284,-38 284,-38 284,-35 287,-32 290,-32 290,-32 403,-32 403,-32 406,-32 409,-35 409,-38 409,-38 409,-44 409,-44 409,-47 406,-50 403,-50"/>
<text text-anchor="start" x="292" y="-38.8" font-family="Helvetica,sans-Serif" font-size="9.00">DeploymentDebugPanel</text>
</a>
</g>
</g>
<!-- src/app/en/debug/page.tsx -->
<g id="node2" class="node">
<title>src/app/en/debug/page.tsx</title>
<g id="a_node2"><a xlink:href="src/app/en/debug/page.tsx" xlink:title="page.tsx">
<path fill="#bbfeff" stroke="black" d="M90,-238C90,-238 46,-238 46,-238 43,-238 40,-235 40,-232 40,-232 40,-226 40,-226 40,-223 43,-220 46,-220 46,-220 90,-220 90,-220 93,-220 96,-223 96,-226 96,-226 96,-232 96,-232 96,-235 93,-238 90,-238"/>
<text text-anchor="start" x="48" y="-226.8" font-family="Helvetica,sans-Serif" font-size="9.00">page.tsx</text>
</a>
</g>
</g>
<!-- src/domains/debug/debug&#45;page.tsx -->
<g id="node3" class="node">
<title>src/domains/debug/debug&#45;page.tsx</title>
<g id="a_node3"><a xlink:href="src/domains/debug/debug-page.tsx" xlink:title="debug&#45;page.tsx">
<path fill="#bbfeff" stroke="black" d="M228,-238C228,-238 152,-238 152,-238 149,-238 146,-235 146,-232 146,-232 146,-226 146,-226 146,-223 149,-220 152,-220 152,-220 228,-220 228,-220 231,-220 234,-223 234,-226 234,-226 234,-232 234,-232 234,-235 231,-238 228,-238"/>
<text text-anchor="start" x="154" y="-226.8" font-family="Helvetica,sans-Serif" font-size="9.00">debug&#45;page.tsx</text>
</a>
</g>
</g>
<!-- src/app/en/debug/page.tsx&#45;&gt;src/domains/debug/debug&#45;page.tsx -->
<g id="edge1" class="edge">
<title>src/app/en/debug/page.tsx&#45;&gt;src/domains/debug/debug&#45;page.tsx</title>
<path fill="none" stroke="#000000" stroke-width="2" stroke-opacity="0.200000" d="M96.23,-229C109.06,-229 124.77,-229 139.59,-229"/>
<polygon fill="#000000" fill-opacity="0.200000" stroke="#000000" stroke-width="2" stroke-opacity="0.200000" points="145.87,-231.1 139.87,-229 145.87,-226.9 145.87,-231.1"/>
</g>
<!-- src/domains/debug/debug&#45;page.tsx&#45;&gt;@kartuli/ui/components/DeploymentDebugPanel -->
<g id="edge7" class="edge">
<title>src/domains/debug/debug&#45;page.tsx&#45;&gt;@kartuli/ui/components/DeploymentDebugPanel</title>
<g id="a_edge7"><a xlink:title="not&#45;to&#45;unresolvable">
<path fill="none" stroke="red" stroke-width="2" d="M229.06,-219.98C237.23,-216.82 245.38,-212.6 252,-207 302.2,-164.55 330.81,-87.96 341.09,-55.82"/>
<polygon fill="red" stroke="red" stroke-width="2" points="343.12,-56.37 342.91,-50.01 339.12,-55.11 343.12,-56.37"/>
</a>
</g>
<text text-anchor="middle" x="258.32" y="-137.1" font-family="Helvetica,sans-Serif" font-size="9.00" fill="red">not&#45;to&#45;unresolvable</text>
</g>
<!-- src/app/en/page.tsx -->
<g id="node4" class="node">
<title>src/app/en/page.tsx</title>
<g id="a_node4"><a xlink:href="src/app/en/page.tsx" xlink:title="page.tsx">
<path fill="#bbfeff" stroke="black" d="M90,-204C90,-204 46,-204 46,-204 43,-204 40,-201 40,-198 40,-198 40,-192 40,-192 40,-189 43,-186 46,-186 46,-186 90,-186 90,-186 93,-186 96,-189 96,-192 96,-192 96,-198 96,-198 96,-201 93,-204 90,-204"/>
<text text-anchor="start" x="48" y="-192.8" font-family="Helvetica,sans-Serif" font-size="9.00">page.tsx</text>
</a>
</g>
</g>
<!-- src/domains/home/home&#45;page.tsx -->
<g id="node5" class="node">
<title>src/domains/home/home&#45;page.tsx</title>
<g id="a_node5"><a xlink:href="src/domains/home/home-page.tsx" xlink:title="home&#45;page.tsx">
<path fill="#bbfeff" stroke="black" d="M226,-178C226,-178 154,-178 154,-178 151,-178 148,-175 148,-172 148,-172 148,-166 148,-166 148,-163 151,-160 154,-160 154,-160 226,-160 226,-160 229,-160 232,-163 232,-166 232,-166 232,-172 232,-172 232,-175 229,-178 226,-178"/>
<text text-anchor="start" x="156" y="-166.8" font-family="Helvetica,sans-Serif" font-size="9.00">home&#45;page.tsx</text>
</a>
</g>
</g>
<!-- src/app/en/page.tsx&#45;&gt;src/domains/home/home&#45;page.tsx -->
<g id="edge2" class="edge">
<title>src/app/en/page.tsx&#45;&gt;src/domains/home/home&#45;page.tsx</title>
<path fill="none" stroke="#000000" stroke-width="2" stroke-opacity="0.200000" d="M96.23,-189.1C109.66,-186.19 126.25,-182.6 141.67,-179.25"/>
<polygon fill="#000000" fill-opacity="0.200000" stroke="#000000" stroke-width="2" stroke-opacity="0.200000" points="148.18,-179.99 141.88,-179.21 147.29,-175.89 148.18,-179.99"/>
</g>
<!-- src/app/layout.tsx -->
<g id="node6" class="node">
<title>src/app/layout.tsx</title>
<g id="a_node6"><a xlink:href="src/app/layout.tsx" xlink:title="layout.tsx">
<path fill="#bbfeff" stroke="black" d="M92.5,-316C92.5,-316 43.5,-316 43.5,-316 40.5,-316 37.5,-313 37.5,-310 37.5,-310 37.5,-304 37.5,-304 37.5,-301 40.5,-298 43.5,-298 43.5,-298 92.5,-298 92.5,-298 95.5,-298 98.5,-301 98.5,-304 98.5,-304 98.5,-310 98.5,-310 98.5,-313 95.5,-316 92.5,-316"/>
<text text-anchor="start" x="45.5" y="-304.8" font-family="Helvetica,sans-Serif" font-size="9.00">layout.tsx</text>
</a>
</g>
</g>
<!-- src/config/metadata&#45;config.tsx -->
<g id="node7" class="node">
<title>src/config/metadata&#45;config.tsx</title>
<g id="a_node7"><a xlink:href="src/config/metadata-config.tsx" xlink:title="metadata&#45;config.tsx">
<path fill="#bbfeff" stroke="black" d="M238,-414C238,-414 142,-414 142,-414 139,-414 136,-411 136,-408 136,-408 136,-402 136,-402 136,-399 139,-396 142,-396 142,-396 238,-396 238,-396 241,-396 244,-399 244,-402 244,-402 244,-408 244,-408 244,-411 241,-414 238,-414"/>
<text text-anchor="start" x="144" y="-402.8" font-family="Helvetica,sans-Serif" font-size="9.00">metadata&#45;config.tsx</text>
</a>
</g>
</g>
<!-- src/app/layout.tsx&#45;&gt;src/config/metadata&#45;config.tsx -->
<g id="edge3" class="edge">
<title>src/app/layout.tsx&#45;&gt;src/config/metadata&#45;config.tsx</title>
<path fill="none" stroke="#000000" stroke-width="2" stroke-opacity="0.200000" d="M72.83,-316.12C80.58,-333.38 99.78,-370.82 128,-390 129.71,-391.16 131.51,-392.24 133.36,-393.23"/>
<polygon fill="#000000" fill-opacity="0.200000" stroke="#000000" stroke-width="2" stroke-opacity="0.200000" points="132.77,-395.27 139.09,-395.96 134.58,-391.48 132.77,-395.27"/>
</g>
<!-- src/config/viewport&#45;config.tsx -->
<g id="node8" class="node">
<title>src/config/viewport&#45;config.tsx</title>
<g id="a_node8"><a xlink:href="src/config/viewport-config.tsx" xlink:title="viewport&#45;config.tsx">
<path fill="#bbfeff" stroke="black" d="M236,-384C236,-384 144,-384 144,-384 141,-384 138,-381 138,-378 138,-378 138,-372 138,-372 138,-369 141,-366 144,-366 144,-366 236,-366 236,-366 239,-366 242,-369 242,-372 242,-372 242,-378 242,-378 242,-381 239,-384 236,-384"/>
<text text-anchor="start" x="146" y="-372.8" font-family="Helvetica,sans-Serif" font-size="9.00">viewport&#45;config.tsx</text>
</a>
</g>
</g>
<!-- src/app/layout.tsx&#45;&gt;src/config/viewport&#45;config.tsx -->
<g id="edge4" class="edge">
<title>src/app/layout.tsx&#45;&gt;src/config/viewport&#45;config.tsx</title>
<path fill="none" stroke="#000000" stroke-width="2" stroke-opacity="0.200000" d="M85.18,-316.17C106.51,-328.25 144.06,-349.53 167.68,-362.92"/>
<polygon fill="#000000" fill-opacity="0.200000" stroke="#000000" stroke-width="2" stroke-opacity="0.200000" points="166.82,-364.84 173.07,-365.97 168.89,-361.19 166.82,-364.84"/>
</g>
<!-- src/domains/app&#45;shell/root&#45;layout.tsx -->
<g id="node9" class="node">
<title>src/domains/app&#45;shell/root&#45;layout.tsx</title>
<g id="a_node9"><a xlink:href="src/domains/app-shell/root-layout.tsx" xlink:title="root&#45;layout.tsx">
<path fill="#bbfeff" stroke="black" d="M225,-298C225,-298 155,-298 155,-298 152,-298 149,-295 149,-292 149,-292 149,-286 149,-286 149,-283 152,-280 155,-280 155,-280 225,-280 225,-280 228,-280 231,-283 231,-286 231,-286 231,-292 231,-292 231,-295 228,-298 225,-298"/>
<text text-anchor="start" x="157" y="-286.8" font-family="Helvetica,sans-Serif" font-size="9.00">root&#45;layout.tsx</text>
</a>
</g>
</g>
<!-- src/app/layout.tsx&#45;&gt;src/domains/app&#45;shell/root&#45;layout.tsx -->
<g id="edge5" class="edge">
<title>src/app/layout.tsx&#45;&gt;src/domains/app&#45;shell/root&#45;layout.tsx</title>
<path fill="none" stroke="#000000" stroke-width="2" stroke-opacity="0.200000" d="M98.66,-302.55C111.9,-300.56 127.82,-298.18 142.57,-295.96"/>
<polygon fill="#000000" fill-opacity="0.200000" stroke="#000000" stroke-width="2" stroke-opacity="0.200000" points="149.13,-297.1 142.88,-295.92 148.5,-292.95 149.13,-297.1"/>
</g>
<!-- src/domains/app&#45;shell/globals.css -->
<g id="node10" class="node">
<title>src/domains/app&#45;shell/globals.css</title>
<g id="a_node10"><a xlink:href="src/domains/app-shell/globals.css" xlink:title="globals.css">
<path fill="#ffffcc" stroke="black" d="M373,-298C373,-298 320,-298 320,-298 317,-298 314,-295 314,-292 314,-292 314,-286 314,-286 314,-283 317,-280 320,-280 320,-280 373,-280 373,-280 376,-280 379,-283 379,-286 379,-286 379,-292 379,-292 379,-295 376,-298 373,-298"/>
<text text-anchor="start" x="322" y="-286.8" font-family="Helvetica,sans-Serif" font-size="9.00">globals.css</text>
</a>
</g>
</g>
<!-- src/domains/app&#45;shell/root&#45;layout.tsx&#45;&gt;src/domains/app&#45;shell/globals.css -->
<g id="edge6" class="edge">
<title>src/domains/app&#45;shell/root&#45;layout.tsx&#45;&gt;src/domains/app&#45;shell/globals.css</title>
<path fill="none" stroke="#000000" stroke-width="2" stroke-opacity="0.200000" d="M231.19,-289C254.83,-289 284.53,-289 307.74,-289"/>
<polygon fill="#000000" fill-opacity="0.200000" stroke="#000000" stroke-width="2" stroke-opacity="0.200000" points="307.79,-291.1 313.79,-289 307.79,-286.9 307.79,-291.1"/>
</g>
</g>
</svg>
